<svg xmlns="http://www.w3.org/2000/svg" xmlns:xlink="http://www.w3.org/1999/xlink" width="422.235" height="213.095" viewBox="0 0 422.235 213.095">
  <defs>
    <clipPath id="clip-path">
      <path id="Path_4523" data-name="Path 4523" d="M440.076,306.669s1.079,37.622,9,59.023a9.438,9.438,0,0,1-3.63,11.2c-4.09,2.679-9.166,4.433-11.912-.589-5.088-9.3-15.264-66.58-15.264-66.58S428.157,313.5,440.076,306.669Z" transform="translate(-418.271 -306.669)" fill="#fff"/>
    </clipPath>
    <clipPath id="clip-path-2">
      <path id="Path_4528" data-name="Path 4528" d="M358.662,307.984s-1.079,37.622-9,59.023a9.439,9.439,0,0,0,3.63,11.2c4.09,2.679,9.166,4.433,11.912-.589,5.088-9.3,15.264-66.58,15.264-66.58S370.583,314.816,358.662,307.984Z" transform="translate(-349.063 -307.984)" fill="#fff"/>
    </clipPath>
    <clipPath id="clip-path-3">
      <path id="Path_4549" data-name="Path 4549" d="M438.57,304.408c4.6,4.1,6.73-3.928,14.527,5.78,8.176,10.181,11.7,29.727,14.347,42.887a53.347,53.347,0,0,1,1.549,12.714c.026,4.624-1.625,5.552-6.748,7.968-3.784,1.785-7.977,2.485-10.075-.166-1.612-2.037-3.392-3.718-3.263-6.379,1.232-25.314-6.424-28.485-10.153-47.408-.475-2.412-3.4-6.275-2.25-8.675s5.061-5.441,7.765-4.721" transform="translate(-436.238 -304.408)" fill="#fff"/>
    </clipPath>
    <clipPath id="clip-path-4">
      <path id="Path_4559" data-name="Path 4559" d="M400.822,356.609l-.012,0c-.117.007-.241.019-.363.032l-1.313-2.549-1.432-2.77-.879-1.708-1.015-1.969q-.2-.385-.386-.785c-.253-.546-.481-1.1-.686-1.655l-.809-2.224-1.051-2.9-.668-1.846a.042.042,0,0,0,.011-.022c-.276.144-.546.294-.815.439l-.158.09c-2.129,1.18-4.2,2.534-6.3,3.5a24.256,24.256,0,0,1-4.316,1.483,53.777,53.777,0,0,1-9.33,1.187c-.006.005-.018.01-.024,0-.862.057-1.73.106-2.592.162-.27.016-.528.016-.8.015l-.023,0c-.352.009-.715,0-1.085-.017a.011.011,0,0,1-.018,0,.019.019,0,0,1-.018,0l-.07-.012h-.012a12.441,12.441,0,0,1-3.3-.635.236.236,0,0,0-.023-.008c-.006,0-.018-.008-.024-.008a6.982,6.982,0,0,1-2.275-1.3l-.006-.006a4.9,4.9,0,0,1-1.313-1.811,7.946,7.946,0,0,1-.065-4.733l.651-3.326.006-.017,1.788-9.113.012-.069v-.011l.012-.057.018-.062,2.287-11.633-.27-.094c-.264-.1-.528-.187-.791-.275s-.534-.171-.815-.242h-.006a18.847,18.847,0,0,0-2.093-.508c-.569-.11-1.143-.2-1.724-.271-.686-.08-1.384-.137-2.082-.154a.315.315,0,0,0-.071,0c-.164,0-.322-.011-.48,0-.194-.006-.387-.006-.575.006h-.006c-.217,0-.422.009-.633.019-.546.027-1.079.072-1.607.14-.124.012-.241.025-.358.043-.428.066-.856.133-1.273.217-.493.107-.985.226-1.46.363-.135.04-.27.081-.4.126a18.216,18.216,0,0,0-2.932,1.159c-.2.1-.4.2-.6.313h-.006c-.451.239-.879.5-1.307.777a17.986,17.986,0,0,0-2.464,1.93v-.012c0,.006,0,.006-.005.011l-.012.011a.324.324,0,0,1-.052.071c-.088.137-.188.279-.282.423v.005c-.052.077-.105.148-.152.231a1.858,1.858,0,0,0-.105.164c-.129.2-.247.391-.364.59l-.005.005c-.147.248-.287.5-.423.759-.005,0-.005.011-.012.016a9.025,9.025,0,0,0-1.02,3.665c-.616,9.248-.463,21.048,2.8,30.351v.012c1.085,4.273,2.733,7.992,5.19,10.488a10.069,10.069,0,0,0,5.5,2.968h.005c4.9,2.426,11.447,2.807,20.139.062.329-.1.652-.209.98-.307s.645-.2.967-.3c.9-.286,1.789-.56,2.663-.836.809-.252,1.607-.494,2.393-.737q2.129-.654,4.163-1.264c.5-.152,1-.305,1.5-.453q2.727-.809,5.261-1.537,1.592-.448,3.1-.871c.6-.166,1.2-.328,1.783-.485.446-.122.891-.239,1.331-.356s.1.04.48-.271c1.015-.8.486-.86.961-.98.287-.073.19-.2.466-.267l1.1-.368,1.438-1.207.993-.387c.208-2.068-.284-1.506-.278-1.511l-.4-.427C401.314,353.422,402.2,356.245,400.822,356.609Z" transform="translate(-339.752 -310.728)" fill="#fff"/>
    </clipPath>
    <clipPath id="clip-path-5">
      <path id="Path_4579" data-name="Path 4579" d="M363.408,279.79c10.6,1.167,35.985,3,58.549-2.772a1.832,1.832,0,0,1,1.985,2.912c-8.977,10.192-33.654,31.876-62.174,2.924A1.834,1.834,0,0,1,363.408,279.79Z" transform="translate(-361.248 -276.949)" fill="none"/>
    </clipPath>
  </defs>
  <g id="Group_4217" data-name="Group 4217" transform="translate(-674 -243.018)">
    <g id="Group_4216" data-name="Group 4216" transform="translate(674 243.018)">
      <g id="XMLID_201_" transform="translate(292.819 43.632)">
        <path id="XMLID_202_" d="M601.05,307.34V237.847A27.559,27.559,0,0,0,573.5,210.3h0a27.539,27.539,0,0,0-22.628,11.806l-47.939,68.42v1.431A88.5,88.5,0,0,1,489.7,338.643V339.9h73.786v9.749a18.78,18.78,0,0,0,18.782,18.782h0a18.78,18.78,0,0,0,18.782-18.782V339.9h1.789a16.279,16.279,0,0,0,16.278-16.278h0a16.279,16.279,0,0,0-16.278-16.278Zm-37.3,0H533.7a2.413,2.413,0,0,1-1.968-3.756l30.051-45.434a2.387,2.387,0,0,1,4.383,1.342v45.434A2.526,2.526,0,0,1,563.754,307.34Z" transform="translate(-489.7 -210.3)" fill="#d50a0a"/>
      </g>
      <g id="XMLID_160_" transform="translate(0 43.632)">
        <path id="XMLID_203_" d="M278.032,307.34h-4.293V237.847A27.559,27.559,0,0,0,246.192,210.3h0a27.539,27.539,0,0,0-22.628,11.806L166.5,303.583a23.265,23.265,0,0,0-4.2,13.237h0A23.074,23.074,0,0,0,185.375,339.9h50.711v9.749a18.78,18.78,0,0,0,18.782,18.782h0a18.78,18.78,0,0,0,18.782-18.782V339.9h16.993A89.573,89.573,0,0,1,278.032,307.34Zm-41.678,0H206.3a2.413,2.413,0,0,1-1.968-3.756l30.051-45.434a2.387,2.387,0,0,1,4.382,1.342v45.434A2.4,2.4,0,0,1,236.354,307.34Z" transform="translate(-162.3 -210.3)" fill="#d50a0a"/>
      </g>
      <path id="XMLID_266_" d="M505.283,296.3s13.684,24.148-1.163,52.768H488.2s11.806-11.9,14.489-49.28Z" transform="translate(-196.723 -175.751)" fill="#b80000"/>
      <path id="XMLID_267_" d="M291.668,318.8s-1.968,26.563,4.651,32.376h7.692S296.676,341.607,291.668,318.8Z" transform="translate(-175.935 -178.128)" fill="#b80000"/>
      <g id="Group_4084" data-name="Group 4084" transform="translate(122.109)">
        <g id="Layer_3" data-name="Layer 3" transform="translate(12.098 53.073)">
          <circle id="Ellipse_1" data-name="Ellipse 1" cx="72.956" cy="72.956" r="72.956" fill="#481e1e"/>
        </g>
        <g id="Layer_1" data-name="Layer 1" transform="translate(0)">
          <g id="Group_4118" data-name="Group 4118" transform="translate(45.628 125.369)">
            <g id="Group_4084-2" data-name="Group 4084" transform="translate(14.783 59.506)">
              <path id="Path_4512" data-name="Path 4512" d="M394.14,369.25l-.318,1.07-1.981,6.615-2.458,8.206h-.911a29.578,29.578,0,0,1-22.692-10.576l.628-3.219,14.087-1.061,5.7-.433Z" transform="translate(-365.78 -369.25)" fill="#001d31"/>
            </g>
            <g id="Group_4085" data-name="Group 4085" transform="translate(45.071 58.1)">
              <path id="Path_4513" data-name="Path 4513" d="M404.682,383.993l-2.1-7.366-1.839-6.482-.707-2.485,8.41,1.079,11.381,1.459h.018l2.741.354A29.7,29.7,0,0,1,404.682,383.993Z" transform="translate(-400.03 -367.66)" fill="#001d31"/>
              <path id="Path_4514" data-name="Path 4514" d="M429.15,371.39l1.061.133A1.234,1.234,0,0,1,429.15,371.39Z" transform="translate(-403.399 -368.092)" fill="#001d31"/>
            </g>
            <g id="Group_4086" data-name="Group 4086" transform="translate(7.85 30.04)">
              <path id="Path_4515" data-name="Path 4515" d="M421.911,348.019v3.643c0,.283,0,.566-.009.849-.018.654-.062,1.291-.124,1.928a29.345,29.345,0,0,1-2.892,10.276c-.3.619-.628,1.229-.982,1.822-.062.115-.133.23-.195.345a29.573,29.573,0,0,1-25.424,14.406h-4.722a29.614,29.614,0,0,1-29.625-29.625v-3.643a12.092,12.092,0,0,1,12.089-12.089h39.794a12.076,12.076,0,0,1,12.089,12.089Z" transform="translate(-357.94 -335.93)" fill="#001d31"/>
            </g>
            <g id="Group_4087" data-name="Group 4087" transform="translate(5.524)">
              <path id="Path_4516" data-name="Path 4516" d="M425.286,304.861l-.027,3.484-.115,17.1-.088,12.946v.31l-.018,2.962v.044l-.027,3.7v.053L425,347.228l-.009.955-.1,14.441-2.255-.009-2.874-.009H417.6l-2.936-.009h-.018l-11.814-.035-7.269-.018-2.954-.009-7.64-.027-5.686-.009-17.739-.053-6.234-.018.592-16.661,1.282-36.2.124-3.643.141-3.962s35.452,9.374,57.357,6.137h.018A30.157,30.157,0,0,0,425.286,304.861Z" transform="translate(-355.31 -301.96)" fill="#f5f5f5"/>
            </g>
            <g id="Group_4088" data-name="Group 4088" transform="translate(11.603 7.68)" style="mix-blend-mode: multiply;isolation: isolate">
              <path id="Path_4517" data-name="Path 4517" d="M369.4,310.645s-8.558,30.934-7.04,44.061,5.611,4.843,5.611,4.843S375.135,312.925,369.4,310.645Z" transform="translate(-362.184 -310.645)" fill="#c7c9cb"/>
            </g>
            <g id="Group_4089" data-name="Group 4089" transform="translate(63.571 10.559)" style="mix-blend-mode: multiply;isolation: isolate">
              <path id="Path_4518" data-name="Path 4518" d="M431.137,361.777a8,8,0,0,1-.9,2.22,2,2,0,0,1-.973.876,1.234,1.234,0,0,1-1.061-.133,3.156,3.156,0,0,1-.84-.752h-.009a10.364,10.364,0,0,1-1.176-1.822,30.54,30.54,0,0,1-1.627-3.776,32.908,32.908,0,0,1-1.035-3.537c-.265-1.1-.5-2.264-.707-3.5a140.043,140.043,0,0,1-1.609-17.262c-.168-3.847-.23-7.534-.239-10.683V323.4c-.009-.5-.009-.964-.009-1.433v-.486c0-1.212.009-2.317.018-3.29.009-.681.018-1.282.027-1.822.018-.743.035-1.335.044-1.751.009-.469.018-.716.018-.716a1.5,1.5,0,0,1,.681.3c2.043,1.45,3.82,7.923,5.271,15.661,1.212,6.473,2.193,13.831,2.892,19.844.062.531.115,1.052.168,1.556C430.766,357.391,431.137,361.777,431.137,361.777Z" transform="translate(-420.95 -313.9)" fill="#c7c9cb"/>
            </g>
            <g id="Group_4097" data-name="Group 4097" transform="translate(61.202 4.164)">
              <path id="Path_4519" data-name="Path 4519" d="M440.076,306.669s1.079,37.622,9,59.023a9.438,9.438,0,0,1-3.63,11.2c-4.09,2.679-9.166,4.433-11.912-.589-5.088-9.3-15.264-66.58-15.264-66.58S428.157,313.5,440.076,306.669Z" transform="translate(-418.271 -306.669)" fill="#fff"/>
              <g id="Group_4096" data-name="Group 4096" clip-path="url(#clip-path)">
                <g id="Group_4091" data-name="Group 4091" transform="translate(17.709 -3.6)">
                  <g id="Group_4090" data-name="Group 4090">
                    <path id="Path_4520" data-name="Path 4520" d="M460.356,393.522l2.162-1.945c-25.313-28.141-21.048-88.155-21-88.757l-2.9-.222a207.173,207.173,0,0,0,.931,34.342C441.48,354.346,446.656,378.29,460.356,393.522Z" transform="translate(-438.297 -302.598)" fill="#00a1ed"/>
                  </g>
                </g>
                <g id="Group_4093" data-name="Group 4093" transform="translate(11.023 -3.6)">
                  <g id="Group_4092" data-name="Group 4092">
                    <path id="Path_4521" data-name="Path 4521" d="M452.794,393.522l2.162-1.945c-25.313-28.141-21.048-88.155-21-88.757l-2.9-.222a207.284,207.284,0,0,0,.931,34.342C433.918,354.346,439.095,378.29,452.794,393.522Z" transform="translate(-430.736 -302.598)" fill="#00a1ed"/>
                  </g>
                </g>
                <g id="Group_4095" data-name="Group 4095" transform="translate(5.208 -3.6)">
                  <g id="Group_4094" data-name="Group 4094">
                    <path id="Path_4522" data-name="Path 4522" d="M446.219,393.522l2.161-1.945c-25.313-28.141-21.047-88.155-21-88.757l-2.9-.222a207.064,207.064,0,0,0,.931,34.342C427.342,354.346,432.519,378.29,446.219,393.522Z" transform="translate(-424.16 -302.598)" fill="#00a1ed"/>
                  </g>
                </g>
              </g>
            </g>
            <g id="Group_4105" data-name="Group 4105" transform="translate(0 5.327)">
              <path id="Path_4524" data-name="Path 4524" d="M358.662,307.984s-1.079,37.622-9,59.023a9.439,9.439,0,0,0,3.63,11.2c4.09,2.679,9.166,4.433,11.912-.589,5.088-9.3,15.264-66.58,15.264-66.58S370.583,314.816,358.662,307.984Z" transform="translate(-349.063 -307.984)" fill="#fff"/>
              <g id="Group_4104" data-name="Group 4104" clip-path="url(#clip-path-2)">
                <g id="Group_4099" data-name="Group 4099" transform="translate(-10.526 -3.6)">
                  <g id="Group_4098" data-name="Group 4098">
                    <path id="Path_4525" data-name="Path 4525" d="M339.322,394.837l-2.162-1.945c25.314-28.141,21.048-88.155,21-88.757l2.9-.222a207.173,207.173,0,0,1-.931,34.342C358.2,355.661,353.022,379.605,339.322,394.837Z" transform="translate(-337.16 -303.913)" fill="#00a1ed"/>
                  </g>
                </g>
                <g id="Group_4101" data-name="Group 4101" transform="translate(-3.839 -3.6)">
                  <g id="Group_4100" data-name="Group 4100">
                    <path id="Path_4526" data-name="Path 4526" d="M346.884,394.837l-2.162-1.945c25.314-28.141,21.048-88.155,21-88.757l2.9-.222a207.173,207.173,0,0,1-.931,34.342C365.761,355.661,360.584,379.605,346.884,394.837Z" transform="translate(-344.722 -303.913)" fill="#00a1ed"/>
                  </g>
                </g>
                <g id="Group_4103" data-name="Group 4103" transform="translate(1.977 -3.6)">
                  <g id="Group_4102" data-name="Group 4102">
                    <path id="Path_4527" data-name="Path 4527" d="M353.459,394.837l-2.161-1.945c25.313-28.141,21.047-88.155,21-88.757l2.9-.222a207.06,207.06,0,0,1-.931,34.342C372.337,355.661,367.16,379.605,353.459,394.837Z" transform="translate(-351.298 -303.913)" fill="#00a1ed"/>
                  </g>
                </g>
              </g>
            </g>
            <g id="Group_4108" data-name="Group 4108" transform="translate(35.189 20.994)">
              <g id="Group_4106" data-name="Group 4106">
                <path id="Path_4529" data-name="Path 4529" d="M390.525,326.257l-1.671,39.01,9.017,10.576,9.391-11.185-5.7-38.9-9.709-.056Z" transform="translate(-388.855 -325.7)" fill="#24a5e0"/>
              </g>
              <g id="Group_4107" data-name="Group 4107" transform="translate(1.077 0.347)">
                <path id="Path_4530" data-name="Path 4530" d="M390.129,328.03l5.591,3.773,5.669-3.753-.089-1.645-11.227-.313Z" transform="translate(-390.073 -326.092)" fill="#249eca"/>
              </g>
            </g>
            <g id="Group_4113" data-name="Group 4113" transform="translate(19 8.961)">
              <g id="Group_4109" data-name="Group 4109" style="mix-blend-mode: multiply;isolation: isolate">
                <path id="Path_4531" data-name="Path 4531" d="M416.1,314.468l1.744,7.147-12.793,7.438-4.555-6.2-15.6-2.132-3.3,7.462-11.048-7.462,4.264-3.3,6.687-5.33Z" transform="translate(-370.548 -312.094)" fill="#c7c9cb"/>
              </g>
              <g id="Group_4110" data-name="Group 4110" transform="translate(1.066 1.551)">
                <path id="Path_4532" data-name="Path 4532" d="M374.177,313.847l-2.423,6.687,9.885,5.815L389,316.657S377.278,314.816,374.177,313.847Z" transform="translate(-371.754 -313.847)" fill="#fff"/>
              </g>
              <g id="Group_4111" data-name="Group 4111" transform="translate(29.583 0.678)">
                <path id="Path_4533" data-name="Path 4533" d="M404,316.132l4.507,10.394,12.865-5.742-1.89-7.923Z" transform="translate(-404.002 -312.861)" fill="#fff"/>
              </g>
              <g id="Group_4112" data-name="Group 4112" transform="translate(13.205 2.835)">
                <path id="Path_4534" data-name="Path 4534" d="M389.405,315.881l-3.925,6.178,10.1,6.033,11.266-6.178-4.288-6.614Z" transform="translate(-385.48 -315.299)" fill="#24a5e0"/>
              </g>
            </g>
            <g id="Group_4114" data-name="Group 4114" transform="translate(1.07 25.389)">
              <path id="Path_4535" data-name="Path 4535" d="M350.273,330.67" transform="translate(-350.273 -330.67)" fill="#e65942"/>
            </g>
            <g id="Group_4115" data-name="Group 4115" transform="translate(51.048 25.098)">
              <path id="Path_4536" data-name="Path 4536" d="M406.789,330.341" transform="translate(-406.789 -330.341)" fill="#ffdba0"/>
            </g>
            <g id="Group_4116" data-name="Group 4116" transform="translate(44.518 46.072)">
              <path id="Path_4537" data-name="Path 4537" d="M399.405,355.477c1.366-.488,2.687-.959,3.937-1.418l-.995.8a.021.021,0,0,1-.017.005C401.527,355.077,400.586,355.263,399.405,355.477Z" transform="translate(-399.405 -354.059)" fill="#edeeef"/>
            </g>
            <g id="Group_4117" data-name="Group 4117" transform="translate(39.946 35.278)" style="mix-blend-mode: multiply;isolation: isolate">
              <path id="Path_4538" data-name="Path 4538" d="M394.5,344.783l7.715,17.822,1.408-.394.759-.185,2.211-1.879-8.917-18.3-3.44,2.5Z" transform="translate(-394.234 -341.853)" fill="#c7c9cb"/>
            </g>
          </g>
          <g id="Group_4119" data-name="Group 4119" transform="translate(0 37.363)">
            <path id="Path_4539" data-name="Path 4539" d="M385.332,378.173A87.866,87.866,0,1,1,473.2,290.308,87.965,87.965,0,0,1,385.332,378.173Zm0-144.78a56.915,56.915,0,1,0,56.915,56.915A56.979,56.979,0,0,0,385.332,233.393Z" transform="translate(-297.466 -202.442)" fill="#5e2f2f"/>
          </g>
          <g id="Group_4129" data-name="Group 4129" transform="translate(122.718 127.533)">
            <g id="Group_4120" data-name="Group 4120" transform="translate(14.469 62.512)">
              <path id="Path_4540" data-name="Path 4540" d="M470.393,376.3l-.053.044a11.641,11.641,0,0,1,0,2.078,14.084,14.084,0,0,1-3.7,8.374,13.271,13.271,0,0,1-10.019,4.289,4.251,4.251,0,0,1-2.662-.84c-.973-.858-1.158-2.326-1.238-3.679-.044-.734-.08-1.468-.1-2.2q-.027-.7-.026-1.406c0-.433.009-.875.018-1.309.009-.23.009-.451.018-.681a10.272,10.272,0,0,1,.177-1.786.053.053,0,0,1,.009-.035,3.441,3.441,0,0,1,.106-.407v-.009a3.458,3.458,0,0,1,.84-1.486,5.057,5.057,0,0,1,2.441-1.185c.628-.159,1.265-.3,1.9-.424h.018a29.649,29.649,0,0,1,4.386-.513,28.55,28.55,0,0,1,8.26.822Z" transform="translate(-452.6 -375.097)" fill="#ffdba0"/>
            </g>
            <g id="Group_4121" data-name="Group 4121" transform="translate(12.394 66.131)">
              <path id="Path_4541" data-name="Path 4541" d="M452.843,379.623a.031.031,0,0,0-.018.009,1.054,1.054,0,0,1-.018-.442l.141.018v.009l.531.08A5.4,5.4,0,0,0,452.843,379.623Z" transform="translate(-450.547 -379.19)" fill="#ffdba0"/>
              <path id="Path_4542" data-name="Path 4542" d="M453.956,382.723a2.425,2.425,0,0,1-.15.831,2.226,2.226,0,0,1-.672.982,1.749,1.749,0,0,1-.778.363,1.677,1.677,0,0,1-1.194-.141,1.393,1.393,0,0,1-.336-.265,2.166,2.166,0,0,1-.539-1.875,3.975,3.975,0,0,1,1.291-2.211,3.158,3.158,0,0,1,.327-.274,4.454,4.454,0,0,1,.628-.442c0,.009.009.018.009.027a4.114,4.114,0,0,0,.769,1.194,3.152,3.152,0,0,1,.619,1.468A2.263,2.263,0,0,1,453.956,382.723Z" transform="translate(-450.253 -379.248)" fill="#ffdba0"/>
            </g>
            <g id="Group_4122" data-name="Group 4122" transform="translate(14.038 62.904)" style="mix-blend-mode: multiply;isolation: isolate">
              <path id="Path_4543" data-name="Path 4543" d="M470.283,378.476c-.522,1.362-1.928,3.113-5.509,4.28-3.6,1.176-8.206,1.7-10.753.318a3.432,3.432,0,0,1-.778-.548,2.918,2.918,0,0,1-.681-.822,3.658,3.658,0,0,1-.442-2.052,4.691,4.691,0,0,1,.044-.593c.292-2.114,2.812-3.042,5.89-3.369h.018a32.51,32.51,0,0,1,3.971-.142,61.036,61.036,0,0,1,8.295.8c.142.018.221.035.221.035A3.921,3.921,0,0,1,470.283,378.476Z" transform="translate(-452.112 -375.541)" fill="#e1b17f"/>
            </g>
            <g id="Group_4128" data-name="Group 4128">
              <path id="Path_4544" data-name="Path 4544" d="M438.57,304.408c4.6,4.1,6.73-3.928,14.527,5.78,8.176,10.181,11.7,29.727,14.347,42.887a53.347,53.347,0,0,1,1.549,12.714c.026,4.624-1.625,5.552-6.748,7.968-3.784,1.785-7.977,2.485-10.075-.166-1.612-2.037-3.392-3.718-3.263-6.379,1.232-25.314-6.424-28.485-10.153-47.408-.475-2.412-3.4-6.275-2.25-8.675s5.061-5.441,7.765-4.721" transform="translate(-436.238 -304.408)" fill="#fff"/>
              <g id="Group_4127" data-name="Group 4127" clip-path="url(#clip-path-3)">
                <g id="Group_4123" data-name="Group 4123" transform="translate(-6.76 1.9)">
                  <path id="Path_4545" data-name="Path 4545" d="M449.081,387.9l-2.737-.982c10.383-28.929-17.1-77.844-17.406-78.265a1.442,1.442,0,0,0,2.488-1.36l-2.721,1.024a1.484,1.484,0,0,1,.465-1.746l1.748-.011c1,.732,8.207,14.467,13.527,29.737C449.649,351.228,454.676,372.3,449.081,387.9Z" transform="translate(-428.594 -306.557)" fill="#00a1ed"/>
                </g>
                <g id="Group_4124" data-name="Group 4124" transform="translate(-0.17 0.648)">
                  <path id="Path_4546" data-name="Path 4546" d="M455.994,386.205l-2.735-.987c10.4-28.8-16.576-77.577-16.875-78a1.443,1.443,0,0,0,2.5-1.344l-2.728,1.007a1.485,1.485,0,0,1,.475-1.741l1.747,0C439.91,306.276,466.589,356.861,455.994,386.205Z" transform="translate(-436.046 -305.141)" fill="#00a1ed"/>
                </g>
                <g id="Group_4125" data-name="Group 4125" transform="translate(6.462 0.119)">
                  <path id="Path_4547" data-name="Path 4547" d="M463.042,381.821l-2.732-.992c7.495-20.651-8.844-58.687-16.217-74.082-.4-.829-.493-1.031-.548-1.182l2.733-.99-1.366.5,1.354-.528c.05.118.206.441.449.949C454.246,321.217,470.914,360.134,463.042,381.821Z" transform="translate(-443.545 -304.542)" fill="#00a1ed"/>
                </g>
                <g id="Group_4126" data-name="Group 4126" transform="translate(12.921 -1.146)">
                  <path id="Path_4548" data-name="Path 4548" d="M469.643,382.958l-2.731-1c8.443-23.1-11.7-68.413-15.82-77.262-.151-.323-.231-.508-.241-.538l1.37-.487,1.341-.562c.021.048.078.169.166.358C459.638,316.157,478.258,359.384,469.643,382.958Z" transform="translate(-450.85 -303.112)" fill="#00a1ed"/>
                </g>
              </g>
            </g>
          </g>
          <g id="Group_4143" data-name="Group 4143" transform="translate(37.394 133.123)">
            <path id="Path_4550" data-name="Path 4550" d="M400.822,356.609l-.012,0c-.117.007-.241.019-.363.032l-1.313-2.549-1.432-2.77-.879-1.708-1.015-1.969q-.2-.385-.386-.785c-.253-.546-.481-1.1-.686-1.655l-.809-2.224-1.051-2.9-.668-1.846a.042.042,0,0,0,.011-.022c-.276.144-.546.294-.815.439l-.158.09c-2.129,1.18-4.2,2.534-6.3,3.5a24.256,24.256,0,0,1-4.316,1.483,53.777,53.777,0,0,1-9.33,1.187c-.006.005-.018.01-.024,0-.862.057-1.73.106-2.592.162-.27.016-.528.016-.8.015l-.023,0c-.352.009-.715,0-1.085-.017a.011.011,0,0,1-.018,0,.019.019,0,0,1-.018,0l-.07-.012h-.012a12.441,12.441,0,0,1-3.3-.635.236.236,0,0,0-.023-.008c-.006,0-.018-.008-.024-.008a6.982,6.982,0,0,1-2.275-1.3l-.006-.006a4.9,4.9,0,0,1-1.313-1.811,7.946,7.946,0,0,1-.065-4.733l.651-3.326.006-.017,1.788-9.113.012-.069v-.011l.012-.057.018-.062,2.287-11.633-.27-.094c-.264-.1-.528-.187-.791-.275s-.534-.171-.815-.242h-.006a18.847,18.847,0,0,0-2.093-.508c-.569-.11-1.143-.2-1.724-.271-.686-.08-1.384-.137-2.082-.154a.315.315,0,0,0-.071,0c-.164,0-.322-.011-.48,0-.194-.006-.387-.006-.575.006h-.006c-.217,0-.422.009-.633.019-.546.027-1.079.072-1.607.14-.124.012-.241.025-.358.043-.428.066-.856.133-1.273.217-.493.107-.985.226-1.46.363-.135.04-.27.081-.4.126a18.216,18.216,0,0,0-2.932,1.159c-.2.1-.4.2-.6.313h-.006c-.451.239-.879.5-1.307.777a17.986,17.986,0,0,0-2.464,1.93v-.012c0,.006,0,.006-.005.011l-.012.011a.324.324,0,0,1-.052.071c-.088.137-.188.279-.282.423v.005c-.052.077-.105.148-.152.231a1.858,1.858,0,0,0-.105.164c-.129.2-.247.391-.364.59l-.005.005c-.147.248-.287.5-.423.759-.005,0-.005.011-.012.016a9.025,9.025,0,0,0-1.02,3.665c-.616,9.248-.463,21.048,2.8,30.351v.012c1.085,4.273,2.733,7.992,5.19,10.488a10.069,10.069,0,0,0,5.5,2.968h.005c4.9,2.426,11.447,2.807,20.139.062.329-.1.652-.209.98-.307s.645-.2.967-.3c.9-.286,1.789-.56,2.663-.836.809-.252,1.607-.494,2.393-.737q2.129-.654,4.163-1.264c.5-.152,1-.305,1.5-.453q2.727-.809,5.261-1.537,1.592-.448,3.1-.871c.6-.166,1.2-.328,1.783-.485.446-.122.891-.239,1.331-.356s.1.04.48-.271c1.015-.8.486-.86.961-.98.287-.073.19-.2.466-.267l1.1-.368,1.438-1.207.993-.387c.208-2.068-.284-1.506-.278-1.511l-.4-.427C401.314,353.422,402.2,356.245,400.822,356.609Z" transform="translate(-339.752 -310.728)" fill="#fff"/>
            <g id="Group_4142" data-name="Group 4142" clip-path="url(#clip-path-4)">
              <g id="Group_4130" data-name="Group 4130" transform="translate(-1.603 40.392)">
                <path id="Path_4551" data-name="Path 4551" d="M348.632,369.861a10.092,10.092,0,0,1-5.506-2.968c-2.455-2.5-4.1-6.217-5.187-10.489C340.03,362.349,343.386,367.271,348.632,369.861Z" transform="translate(-337.939 -356.404)" fill="#00a1ed"/>
              </g>
              <g id="Group_4131" data-name="Group 4131" transform="translate(-4.692 -1.005)">
                <path id="Path_4552" data-name="Path 4552" d="M397.511,355.8l-1.426.651-.005.005c-.276.062-.552.13-.839.2-.475.119-.95.24-1.436.364-.428.112-.862.225-1.3.336s-.885.234-1.331.357c-.587.157-1.179.317-1.783.485-1.009.28-2.041.571-3.1.871q-2.532.731-5.26,1.537c-.493.148-.991.3-1.5.452q-2.032.61-4.164,1.265c-.785.242-1.583.485-2.392.738-.875.276-1.766.55-2.663.835-.323.1-.646.2-.967.3s-.652.2-.98.307c-8.691,2.745-15.236,2.364-20.138-.062h-.006a10.068,10.068,0,0,1-5.5-2.969c-2.458-2.5-4.105-6.214-5.19-10.487v-.011c-3.267-9.3-3.42-21.1-2.8-30.352a8.994,8.994,0,0,1,1.021-3.664c.005-.005.005-.012.012-.017.134-.256.276-.51.422-.759l.006-.005c.118-.2.234-.392.363-.589a1.605,1.605,0,0,1,.106-.165c.047-.083.1-.154.152-.23v-.006c.094-.142.194-.285.281-.422a.291.291,0,0,0,.053-.072l.012-.01c.006-.005.006-.005.006-.012v.012a17.975,17.975,0,0,1,2.463-1.929c.428-.276.856-.539,1.308-.778h.006c.2-.11.4-.214.6-.312a18.15,18.15,0,0,1,2.932-1.16c.134-.046.27-.086.405-.126.475-.137.967-.256,1.46-.362.417-.085.844-.151,1.273-.217.118-.019.234-.032.357-.043.528-.069,1.062-.114,1.608-.14.211-.011.416-.021.633-.019h.005c.188-.012.381-.012.575-.006.158-.009.317,0,.481,0a.317.317,0,0,1,.071,0c.7.017,1.4.073,2.082.153.58.07,1.155.163,1.724.272a18.7,18.7,0,0,1,2.093.508h.006c.281.072.545.154.815.241s.527.176.792.275l-4.8,24.374c-.457,2.348-.9,4.972,2.083,7.113a8.132,8.132,0,0,0,5.278,1.5c.171-.014.347-.027.516-.035a.019.019,0,0,0,.018,0c.205-.011.41-.027.609-.038l.024,0c1.2-.072,2.4-.143,3.595-.21a50.811,50.811,0,0,0,9.178-1.242,23.287,23.287,0,0,0,3.987-1.4c2.2-1.016,4.363-2.443,6.6-3.666l.1-.055c.176-.095.352-.189.533-.278" transform="translate(-334.446 -309.592)" fill="none"/>
              </g>
              <g id="Group_4133" data-name="Group 4133" transform="translate(12.634 -4.093)">
                <g id="Group_4132" data-name="Group 4132">
                  <path id="Path_4553" data-name="Path 4553" d="M389.837,338.54l1.05,2.9c-.129.047-.258.1-.386.146q-.828.309-1.637.6c-10.632,3.843-18.713,5.166-25.487,4.235a27.457,27.457,0,0,1-4.715-1.071,5.818,5.818,0,0,1-3.343-2.89c-3.677-6.786,1.46-24.209,4.193-32.33.68-2.021,1.208-3.467,1.419-4.03l2.779,1.344a148.725,148.725,0,0,0-4.651,15.129,81.7,81.7,0,0,0-1.789,9.114l-.005.017c-.528,4.109-.487,7.649.6,9.654a2.011,2.011,0,0,0,.129.215l.006.007a2.161,2.161,0,0,0,1.208.987c.352.113.7.215,1.067.311.006,0,.018.008.023.008a.242.242,0,0,0,.024.008,23.9,23.9,0,0,0,3.3.635h.012l.071.012a.02.02,0,0,0,.018,0,.011.011,0,0,0,.018,0c.158.026.317.04.475.055,6.3.65,14.046-.791,24.121-4.492.281-.1.557-.206.838-.308Z" transform="translate(-354.038 -306.1)" fill="#00a1ed"/>
                </g>
              </g>
              <g id="Group_4135" data-name="Group 4135" transform="translate(5.956 -3.64)">
                <g id="Group_4134" data-name="Group 4134">
                  <path id="Path_4554" data-name="Path 4554" d="M391.9,346.161l1.014,1.97a134.421,134.421,0,0,1-28.466,5.646,22.824,22.824,0,0,1-5.137-.08,13.368,13.368,0,0,1-9.043-4.928c-7.929-10.008-1.326-31.886,1.337-39.513h.005c.523-1.494.891-2.442.974-2.645L355.336,308c-.012.04-.211.539-.522,1.407-2.117,5.88-9.595,28.586-2.34,37.754,2.334,2.95,6.035,4.156,11.312,3.69a132.032,132.032,0,0,0,27.722-5.475C391.632,345.644,391.76,345.906,391.9,346.161Z" transform="translate(-346.487 -306.612)" fill="#00a1ed"/>
                </g>
              </g>
              <g id="Group_4137" data-name="Group 4137" transform="translate(-1.679 -2.313)">
                <g id="Group_4136" data-name="Group 4136">
                  <path id="Path_4555" data-name="Path 4555" d="M392.791,350.013l1.431,2.769c-10.362,2.571-23.657,5.5-37.128,7.423a20.231,20.231,0,0,1-5.676.075,13.242,13.242,0,0,1-8.351-4.371c-9.037-10.142-4.07-34.7-1.736-44.1h.006c.516-2.093.909-3.436.985-3.7l2.839,1.181c-.012.034-.118.4-.294,1.044-1.566,5.778-8.574,33.866.281,43.8,2.528,2.839,6.175,3.872,11.142,3.157C369.5,355.405,382.558,352.549,392.791,350.013Z" transform="translate(-337.853 -308.113)" fill="#00a1ed"/>
                </g>
              </g>
              <g id="Group_4140" data-name="Group 4140" transform="translate(-4.691 4.6)">
                <g id="Group_4138" data-name="Group 4138">
                  <path id="Path_4556" data-name="Path 4556" d="M337.535,351.71c-3.265-9.306-3.42-21.1-2.8-30.352a8.987,8.987,0,0,1,1.021-3.665l.01-.018c.135-.255.277-.508.424-.755l.005-.005c.118-.2.236-.393.365-.59.029-.054.065-.107.1-.166.047-.08.1-.155.153-.229C336.452,318.655,334.073,338,337.535,351.71Z" transform="translate(-334.447 -315.93)" fill="#00a1ed"/>
                </g>
                <g id="Group_4139" data-name="Group 4139" transform="translate(13.785 39.215)">
                  <path id="Path_4557" data-name="Path 4557" d="M401.291,360.275l-1,.706a.02.02,0,0,1-.018,0l-.956.676-1.426.651-.005.005c-.276.062-.552.13-.839.2-.475.119-.95.24-1.436.364-.428.112-.862.225-1.3.336s-.885.234-1.331.357c-.587.156-1.179.317-1.783.485-1.009.28-2.041.571-3.1.871q-2.534.731-5.26,1.537c-.493.148-.991.3-1.5.452q-2.032.61-4.164,1.265c-.785.242-1.583.485-2.392.738-.875.276-1.766.55-2.663.835-.323.1-.646.2-.967.3s-.652.2-.98.307c-8.691,2.745-15.236,2.364-20.139-.062a13.357,13.357,0,0,0,4.011.072c13.248-1.618,29.809-5.52,42.394-8.814.042-.014.088-.021.129-.035l.739-.195h.012C398.7,360.971,400.03,360.621,401.291,360.275Z" transform="translate(-350.035 -360.275)" fill="#00a1ed"/>
                </g>
              </g>
              <g id="Group_4141" data-name="Group 4141" transform="translate(-4.692 -1.005)">
                <path id="Path_4558" data-name="Path 4558" d="M386.966,337.052c-.012.005-.018.011-.029.015s-.011,0-.018.01h-.006c-.275.143-.545.294-.815.438l-.158.09c-2.129,1.181-4.2,2.534-6.305,3.5a24.251,24.251,0,0,1-4.315,1.482,53.878,53.878,0,0,1-9.33,1.188c-.006.005-.018.01-.024,0-.862.056-1.73.105-2.592.161-.27.017-.528.017-.8.015l-.024,0c-.351.009-.715,0-1.084-.017a.011.011,0,0,1-.018,0,.02.02,0,0,1-.018,0l-.071-.012h-.012a12.4,12.4,0,0,1-3.3-.635.251.251,0,0,1-.024-.008c-.005,0-.018-.007-.023-.008a6.973,6.973,0,0,1-2.275-1.3l-.006-.006a4.907,4.907,0,0,1-1.313-1.811,7.949,7.949,0,0,1-.065-4.734l.651-3.325.005-.017,1.789-9.114.011-.068V322.9l.012-.057.018-.063,2.287-11.632c-.088-.031-.182-.063-.27-.095-.264-.1-.528-.187-.792-.275s-.534-.17-.815-.241h-.006a18.7,18.7,0,0,0-2.093-.508c-.57-.11-1.144-.2-1.724-.272-.686-.08-1.384-.136-2.082-.153a.317.317,0,0,0-.071,0c-.164,0-.323-.011-.481,0-.194-.005-.386-.005-.575.006h-.005c-.218,0-.423.008-.633.019-.546.026-1.08.071-1.608.14-.123.012-.24.025-.357.043-.428.065-.856.132-1.273.217-.493.106-.985.225-1.46.362-.135.041-.271.08-.405.126a18.15,18.15,0,0,0-2.932,1.16c-.2.1-.4.2-.6.312h-.006c-.452.239-.88.5-1.308.778a17.975,17.975,0,0,0-2.463,1.929v-.012c0,.006,0,.006-.006.012l-.012.01a.291.291,0,0,1-.053.072c-.088.137-.187.279-.281.422v.006c-.053.076-.105.147-.152.23a1.605,1.605,0,0,0-.106.165c-.129.2-.246.391-.363.589l-.006.005c-.146.249-.287.5-.422.759-.006.005-.006.012-.012.017a8.994,8.994,0,0,0-1.021,3.664c-.616,9.248-.463,21.049,2.8,30.352v.011c1.085,4.273,2.733,7.992,5.19,10.487a10.068,10.068,0,0,0,5.5,2.969h.006c4.9,2.426,11.447,2.807,20.138.062.328-.1.651-.209.98-.307s.645-.2.967-.3c.9-.285,1.788-.559,2.663-.835.809-.253,1.607-.5,2.392-.738q2.129-.654,4.164-1.265c.5-.152,1-.3,1.5-.452q2.727-.809,5.26-1.537c1.062-.3,2.094-.591,3.1-.871.6-.167,1.2-.328,1.783-.485.446-.123.891-.24,1.331-.357s.868-.224,1.3-.336c.486-.125.961-.245,1.436-.364.287-.073.563-.141.839-.2l.005-.005,1.426-.651" transform="translate(-334.446 -309.592)" fill="none"/>
              </g>
            </g>
          </g>
          <g id="Group_4165" data-name="Group 4165" transform="translate(86.282 138.395)">
            <g id="Group_4163" data-name="Group 4163">
              <g id="Group_4158" data-name="Group 4158" transform="translate(0 1.76)">
                <g id="Group_4151" data-name="Group 4151">
                  <g id="Group_4148" data-name="Group 4148" transform="translate(9.98)">
                    <g id="Group_4144" data-name="Group 4144">
                      <path id="Path_4560" data-name="Path 4560" d="M414,345.767c-.469-.592-.893-1.176-1.282-1.742s-.743-1.132-1.07-1.663c-.15-.23-.283-.469-.407-.69-.256-.442-.486-.867-.7-1.273-.106-.2-.2-.4-.3-.592s-.177-.371-.265-.548c-.062-.133-.124-.256-.177-.38s-.1-.221-.141-.318-.08-.177-.115-.265q-.172-.385-.292-.69a2.054,2.054,0,0,1-.08-.212l-.009-.009a.606.606,0,0,0-.027-.071c-.009-.018-.018-.044-.026-.062v-.009c-.044-.115-.08-.2-.106-.283-.053-.142-.08-.239-.1-.283a.068.068,0,0,1-.009-.027s-.026-.026-.08-.071l-.062-.062c-.044-.027-.08-.062-.133-.1s-.088-.071-.141-.106c-.071-.044-.142-.088-.221-.133-.053-.027-.115-.062-.177-.1-.018-.009-.027-.018-.044-.018-.08-.035-.159-.071-.239-.1a1.97,1.97,0,0,0-.212-.071c-.018-.009-.044-.009-.062-.018s-.027-.009-.035-.009c-.062-.009-.124-.027-.186-.035a2.032,2.032,0,0,0-.61.018.314.314,0,0,0-.088.018,1.787,1.787,0,0,0-.292.08c.009.044.009.088.018.133v.009a37.554,37.554,0,0,0,.8,5.518l.009.009a11.936,11.936,0,0,0,2.962,5.775c.478.478.893.964,1.282,1.433v.009c1.088,1.309,1.981,2.5,3.52,2.936a4.473,4.473,0,0,0,1.132.168c.1.009.186.009.283.009h.009l.778.027S417.7,350.445,414,345.767Zm6.632-23.859q-.013-.066-.026-.159a.608.608,0,0,0-.018-.115c-.009-.08-.027-.168-.044-.265a1.029,1.029,0,0,0-.035-.159c-.018-.1-.035-.195-.062-.292s-.044-.2-.08-.3V320.6c-.027-.1-.053-.195-.088-.292a2.134,2.134,0,0,0-.106-.309c-.035-.1-.071-.195-.115-.292a2.267,2.267,0,0,0-.1-.212l-.009-.009a1.4,1.4,0,0,0-.115-.195,2.23,2.23,0,0,0-.124-.186.961.961,0,0,0-.088-.1.506.506,0,0,0-.1-.1c-.035-.035-.071-.053-.1-.08a1.44,1.44,0,0,0-.159-.088c-.044-.018-.088-.027-.133-.044a.517.517,0,0,0-.115-.018c-.044,0-.08.009-.124.009s-.071.009-.106.018a.265.265,0,0,0-.088.035.032.032,0,0,0-.026.009.43.43,0,0,0-.115.053.5.5,0,0,0-.062.035H418.5a.155.155,0,0,0-.044.035.511.511,0,0,0-.062.035c-.018.018-.044.035-.062.053a.929.929,0,0,0-.106.088.487.487,0,0,0-.08.062l-.08.08a7.487,7.487,0,0,0-1.194,1.751c-.133.239-.265.5-.4.787l2.786.3.884.1.531.053S420.664,322.076,420.637,321.908Zm10.32,18.42c-.018.009-.026.009-.044.018a7.009,7.009,0,0,1-1.247.345,3.53,3.53,0,0,0,1.291-.053,2.021,2.021,0,0,0,.593-.212,1.25,1.25,0,0,0,.159-.1c.018-.009.035-.027.053-.035l.018-.009a1.864,1.864,0,0,0,.584-.716A4.854,4.854,0,0,1,430.957,340.328Zm1.583,6.464a5.579,5.579,0,0,1-.875.345c-.08.027-.159.053-.23.071s-.141.044-.2.053q-.2.053-.318.08c-.124.027-.195.035-.195.035.062.009.133.009.195.018a3.974,3.974,0,0,0,.557.009,1.727,1.727,0,0,0,.212-.018,3.1,3.1,0,0,0,.575-.124c.071-.027.133-.053.195-.08s.133-.062.195-.1a.881.881,0,0,0,.15-.1.864.864,0,0,0,.133-.1,1.36,1.36,0,0,0,.115-.106,1.784,1.784,0,0,0,.256-.318.582.582,0,0,0,.071-.115c.018-.044.026-.071.035-.088A4.384,4.384,0,0,1,432.54,346.792Zm.548-4.041a.184.184,0,0,1-.053.035l-.08.053a2.854,2.854,0,0,1-.318.177c-.018.009-.027.009-.044.018a2.1,2.1,0,0,1-.2.1c-.115.053-.23.106-.354.15s-.239.08-.345.124c-.133.044-.265.08-.371.106-.15.035-.283.071-.38.088-.124.027-.195.035-.195.035a1.493,1.493,0,0,0,.195.009,1.244,1.244,0,0,0,.177.009,4.152,4.152,0,0,0,.469,0,2.7,2.7,0,0,0,.283-.044,2.193,2.193,0,0,0,.256-.053,1.757,1.757,0,0,0,.23-.071,1.416,1.416,0,0,0,.2-.088,2.066,2.066,0,0,0,.4-.256.659.659,0,0,0,.115-.106.845.845,0,0,0,.088-.088.653.653,0,0,0,.106-.141c.027-.035.053-.071.071-.1s.044-.071.062-.1a.451.451,0,0,0,.035-.1A2.386,2.386,0,0,1,433.088,342.751Zm7.163-18.571,2.246,3.785S448.431,322.633,440.251,324.18Z" transform="translate(-406.32 -318.68)" fill="#ffdba0"/>
                    </g>
                    <g id="Group_4145" data-name="Group 4145" transform="translate(33.928 5.222)">
                      <path id="Path_4561" data-name="Path 4561" d="M446.936,328.652l-2.25-3.786C452.868,323.32,446.936,328.652,446.936,328.652Z" transform="translate(-444.686 -324.585)" fill="#fff"/>
                    </g>
                    <g id="Group_4146" data-name="Group 4146" transform="translate(10.15 0.002)">
                      <path id="Path_4562" data-name="Path 4562" d="M422,322.183l-4.2-.454C421.194,314.618,422,322.183,422,322.183Z" transform="translate(-417.798 -318.682)" fill="#fff"/>
                    </g>
                    <g id="Group_4147" data-name="Group 4147" transform="translate(24.426 23.826)" style="mix-blend-mode: multiply;isolation: isolate">
                      <path id="Path_4563" data-name="Path 4563" d="M436.639,345.623s-.465,1.378-2.7,1.128A6.49,6.49,0,0,0,436.639,345.623Z" transform="translate(-433.941 -345.623)" fill="#ffdba0"/>
                    </g>
                  </g>
                  <g id="Group_4149" data-name="Group 4149" transform="translate(9.09 17.142)" style="mix-blend-mode: multiply;isolation: isolate">
                    <path id="Path_4564" data-name="Path 4564" d="M417.006,354.215l-.791-.035-.454-.023-.96-.145-1.378-.2-1.808-2.215s-.122-.186-.332-.511a.023.023,0,0,1-.005-.012c-.785-1.215-2.78-4.367-4.246-7.21l-.005-.006c-1.268-2.477-2.145-4.721-1.489-5.263a2.164,2.164,0,0,1,.5-.319h.006a1.311,1.311,0,0,1,.163-.076,2.653,2.653,0,0,1,2.581.7,32.149,32.149,0,0,0,5.1,9.112C417.58,352.685,417.006,354.215,417.006,354.215Z" transform="translate(-405.314 -338.064)" fill="#ffdba0"/>
                  </g>
                  <g id="Group_4150" data-name="Group 4150" transform="translate(0 17.266)">
                    <path id="Path_4565" data-name="Path 4565" d="M414.937,354.82c-.324.574-1.11.4-1.559.886-3.905,4.221-4.607,4.628-10.29,5.473l-4.569-9.066a20.1,20.1,0,0,1-1.048-2.472l-2.435-7.094c3.382-2.724,4.646-3.759,8.938-4.324a2.218,2.218,0,0,1,1.137.15,2.256,2.256,0,0,1,.383.2c1.793,1.083,3.328,4.447,5.371,8.328,1.208,2.118,3.891,4,4.005,5.968C414.895,353.282,415.178,354.4,414.937,354.82Z" transform="translate(-395.035 -338.205)" fill="#edeeef"/>
                  </g>
                </g>
                <g id="Group_4157" data-name="Group 4157" transform="translate(3.51 20.781)">
                  <g id="Group_4152" data-name="Group 4152">
                    <circle id="Ellipse_2" data-name="Ellipse 2" cx="1.963" cy="1.963" r="1.963" fill="#00a1ed"/>
                  </g>
                  <g id="Group_4153" data-name="Group 4153" transform="translate(0.943 1.766)">
                    <circle id="Ellipse_3" data-name="Ellipse 3" cx="0.263" cy="0.263" r="0.263" fill="#0084b5"/>
                  </g>
                  <g id="Group_4154" data-name="Group 4154" transform="translate(1.841 1.014)">
                    <circle id="Ellipse_4" data-name="Ellipse 4" cx="0.263" cy="0.263" r="0.263" fill="#0084b5"/>
                  </g>
                  <g id="Group_4155" data-name="Group 4155" transform="translate(1.596 2.602)">
                    <circle id="Ellipse_5" data-name="Ellipse 5" cx="0.263" cy="0.263" r="0.263" fill="#0084b5"/>
                  </g>
                  <g id="Group_4156" data-name="Group 4156" transform="translate(2.494 1.851)">
                    <circle id="Ellipse_6" data-name="Ellipse 6" cx="0.263" cy="0.263" r="0.263" fill="#0084b5"/>
                  </g>
                </g>
              </g>
              <g id="Group_4162" data-name="Group 4162" transform="translate(9.98)">
                <g id="Group_4159" data-name="Group 4159">
                  <path id="Path_4566" data-name="Path 4566" d="M431.771,334a12.181,12.181,0,0,1,3.422-1.636c2.352-.778,5.439-1.733,7.72-2.52a5.791,5.791,0,0,0,2.98-2.229c2.034-3.06-.389-5.624-2.945-5.943a7.651,7.651,0,0,0-4.758,1.247c-2.06,1.22-4.766,2.909-7.145,4.227-.637.354-1.247.681-1.822.964-1.282.637-2.618,1.459-3.909,2.069-1.592.743-3.1,1.141-4.324.416a.759.759,0,0,1-.318-.911,24.985,24.985,0,0,0,1.212-5.642c.309-2.777.928-3.113.124-5.1a3.855,3.855,0,0,0-1.247-1.8.829.829,0,0,0-.106-.08,2.525,2.525,0,0,0-1.353-.38,5.347,5.347,0,0,0-1.353.2c-1.6.451-2.087,1.751-2.662,3.307a27.87,27.87,0,0,0-.937,4.28c-.053.274-.106.548-.168.814q-.2.862-.4,1.618c-.831,3.1-1.8,4.988-4.368,6.792-.433.31-.911.61-1.433.911l-.76.5-.9.6a1.793,1.793,0,0,1,.292-.08.314.314,0,0,1,.088-.018,2.033,2.033,0,0,1,.61-.018c.062.009.124.026.186.035.009,0,.027.009.035.009s.044.009.062.018a1.984,1.984,0,0,1,.212.071,2.456,2.456,0,0,1,1.309,1.273v.009c.009.018.018.044.026.062a.606.606,0,0,1,.027.071l.009.009a2.054,2.054,0,0,0,.08.212q.119.305.292.69c.035.088.071.177.115.265s.088.2.141.318.115.248.177.38c.088.177.177.363.265.548s.195.389.3.592c.212.407.442.831.7,1.273.124.221.256.46.407.69.327.531.681,1.1,1.07,1.663s.814,1.15,1.282,1.742c3.7,4.678,3.113,6.208,3.113,6.208a39.95,39.95,0,0,0,4-.071,24.041,24.041,0,0,0,3.475-.5,27.1,27.1,0,0,0,2.909-.884c.23-.088.469-.177.707-.256.946-.354,1.9-.734,2.7-1.1a11.98,11.98,0,0,0,1.6-.84,4.3,4.3,0,0,0,2.131-2.671c.345-1.53,1.061-2.485-.752-3.5a.657.657,0,0,0-.106-.062.192.192,0,0,0,.044-.035,3.658,3.658,0,0,0,1.362-1.981,32.623,32.623,0,0,0,7.8-1.583c1.91-.725,3.157-1.716,2.989-3.015a1.736,1.736,0,0,0-.256-.831C444.178,331.75,435.67,333.183,431.771,334Zm10.727-6.27-2.246-3.785C448.431,322.4,442.5,327.735,442.5,327.735Zm-25.628-7.021a7.487,7.487,0,0,1,1.194-1.751l.08-.08a.485.485,0,0,1,.08-.062.088.088,0,0,1,.035-.044.123.123,0,0,1,.035-.027.067.067,0,0,1,.035-.018c.018-.018.044-.035.062-.053a.5.5,0,0,1,.062-.035.155.155,0,0,1,.044-.035h.009a.5.5,0,0,1,.062-.035.43.43,0,0,1,.115-.053.032.032,0,0,1,.026-.009.922.922,0,0,1,.195-.053c.044,0,.08-.009.124-.009a.517.517,0,0,1,.115.018c.044.018.088.027.133.044a1.435,1.435,0,0,1,.159.088c.027.027.062.044.1.08a.506.506,0,0,1,.1.1.96.96,0,0,1,.088.1c.044.062.088.124.124.186a1.4,1.4,0,0,1,.115.195l.009.009a2.263,2.263,0,0,1,.1.212c.044.1.08.195.115.292a2.135,2.135,0,0,1,.106.309c.035.1.062.195.088.292v.018c.035.1.053.2.08.3s.044.195.062.292a1.028,1.028,0,0,1,.035.159c.018.1.035.186.044.265a.608.608,0,0,1,.018.115q.013.093.026.159c.027.168.035.274.035.274l-.531-.053-.884-.1-2.786-.3C416.6,321.218,416.737,320.952,416.87,320.714Zm12.8,19.747a7.012,7.012,0,0,0,1.247-.345c.018-.009.027-.009.044-.018a4.855,4.855,0,0,0,1.406-.761,1.865,1.865,0,0,1-.584.716l-.018.009c-.018.009-.035.027-.053.035a1.254,1.254,0,0,1-.159.1,2.021,2.021,0,0,1-.593.212A3.529,3.529,0,0,1,429.666,340.46Zm3.732,1.919c-.018.027-.035.062-.062.1s-.044.062-.071.1a.652.652,0,0,1-.106.142.842.842,0,0,1-.088.088.658.658,0,0,1-.115.106,2.066,2.066,0,0,1-.4.256,1.413,1.413,0,0,1-.2.088,1.753,1.753,0,0,1-.23.071,2.2,2.2,0,0,1-.256.053,2.716,2.716,0,0,1-.283.044,4.152,4.152,0,0,1-.469,0,1.24,1.24,0,0,1-.177-.009,1.5,1.5,0,0,1-.195-.009s.071-.009.195-.035c.1-.018.23-.053.38-.088q.172-.053.371-.106c.106-.044.23-.08.345-.124s.239-.1.354-.15a2.109,2.109,0,0,0,.2-.1c.018-.009.027-.009.044-.018a2.859,2.859,0,0,0,.318-.177l.08-.053a.184.184,0,0,0,.053-.035,2.386,2.386,0,0,0,.345-.239A.451.451,0,0,1,433.4,342.379Z" transform="translate(-406.32 -316.69)" fill="#ffdba0"/>
                </g>
                <g id="Group_4160" data-name="Group 4160" transform="translate(24.595 23.15)" style="mix-blend-mode: multiply;isolation: isolate">
                  <path id="Path_4567" data-name="Path 4567" d="M438.241,342.869l-4.109.278A9.8,9.8,0,0,0,438.241,342.869Z" transform="translate(-434.132 -342.869)" fill="#ffdba0"/>
                </g>
                <g id="Group_4161" data-name="Group 4161" transform="translate(24.396 29.33)" style="mix-blend-mode: multiply;isolation: isolate">
                  <path id="Path_4568" data-name="Path 4568" d="M433.908,350.985a6.548,6.548,0,0,0,2.7-1.128s-.465,1.379-2.7,1.128Z" transform="translate(-433.908 -349.857)" fill="#ffdba0"/>
                </g>
              </g>
            </g>
            <g id="Group_4164" data-name="Group 4164" transform="translate(46.671 18.032)">
              <path id="Path_4569" data-name="Path 4569" d="M447.811,339.343s4.34-1.608,0-2.262v2.262Z" transform="translate(-447.811 -337.081)" fill="#fff"/>
            </g>
          </g>
          <g id="Group_4215" data-name="Group 4215" transform="translate(16.26)">
            <g id="Group_4166" data-name="Group 4166" transform="translate(109.572 67.331)">
              <path id="Path_4570" data-name="Path 4570" d="M456.712,268.484a15.428,15.428,0,0,1-1.565.009,15.2,15.2,0,0,1-2.777-.363,16.115,16.115,0,0,1-12.584-14.848c-.026-.478-.035-.946-.018-1.406A16.1,16.1,0,0,1,451.238,237a16.866,16.866,0,0,1,1.663-.4,13.807,13.807,0,0,1,1.371-.195c.23-.027.469-.044.707-.053a15.65,15.65,0,0,1,1.822,0c.2.009.407.027.6.053a13.951,13.951,0,0,1,2.2.363c.486.115.955.248,1.424.407a16.093,16.093,0,0,1-4.315,31.3Z" transform="translate(-439.76 -236.33)" fill="#ffdba0"/>
            </g>
            <g id="Group_4167" data-name="Group 4167" transform="translate(117.187 75.906)" style="mix-blend-mode: multiply;isolation: isolate">
              <circle id="Ellipse_7" data-name="Ellipse 7" cx="8.529" cy="8.529" r="8.529" fill="#e1b17f"/>
            </g>
            <g id="Group_4168" data-name="Group 4168" transform="translate(0 74.614)">
              <path id="Path_4571" data-name="Path 4571" d="M347.907,262.645A16.09,16.09,0,0,1,335.659,276.3a14.861,14.861,0,0,1-2.007.345c-.274.035-.557.053-.84.071a16.087,16.087,0,1,1-1.733-32.127c.177-.009.345-.018.522-.018.433-.009.858,0,1.282.018a1.593,1.593,0,0,1,.195.018,2.5,2.5,0,0,1,.363.027c.31.027.619.062.92.106.283.044.548.1.822.15a15.9,15.9,0,0,1,4.634,1.733,16.118,16.118,0,0,1,8.091,16.024Z" transform="translate(-315.853 -244.566)" fill="#ffdba0"/>
            </g>
            <g id="Group_4169" data-name="Group 4169" transform="translate(7.616 83.186)" style="mix-blend-mode: multiply;isolation: isolate">
              <circle id="Ellipse_8" data-name="Ellipse 8" cx="8.529" cy="8.529" r="8.529" fill="#e1b17f"/>
            </g>
            <g id="Group_4170" data-name="Group 4170" transform="translate(14.403 0.252)">
              <path id="Path_4572" data-name="Path 4572" d="M442.865,266.058v.009a25.383,25.383,0,0,1-4.952,15.254c-.08.106-.15.221-.239.327a25.013,25.013,0,0,1-7.755,6.7c-2.361,1.318-4.82,2.529-7.34,3.626a85.711,85.711,0,0,1-11.231,3.988c-.707.2-1.415.389-2.131.575-.239.062-.478.124-.716.168a84.668,84.668,0,0,1-11.249,2.007c-.469.062-.937.106-1.406.15-1.318.133-2.653.239-3.988.31q-3.887.212-7.7.088c-.566-.009-1.132-.035-1.7-.062-2.759-.133-5.474-.4-8.153-.778-.593-.088-1.185-.177-1.769-.274-1.158-.186-2.317-.4-3.458-.628-.442-.088-.893-.186-1.335-.283-.9-.195-1.8-.407-2.7-.637a83.321,83.321,0,0,1-10.541-3.4c-.584-.221-1.15-.46-1.724-.7a24.477,24.477,0,0,1-5.607-3.316,23.75,23.75,0,0,1-5.085-5.483c-.035-.053-.071-.1-.1-.141-.186-.265-.363-.539-.531-.8a24.252,24.252,0,0,1-3.475-10.7l-.442-5.483-.327-3.953-.221-2.741-.38-4.7c-.009-.009-.009-.009-.009-.018l-.248-3.139-.69-8.419-.707-8.728-.018-.177-1.079-13.265-.31-3.829-.354-4.36-.955-11.788-.106-1.318v-.009a1.889,1.889,0,0,1,.088-.195c.133-.31.274-.619.424-.92.354-.725.734-1.441,1.132-2.149.062-.115.115-.221.186-.327.124-.23.256-.46.389-.681q.438-.743.875-1.459c.248-.4.486-.787.716-1.158.283-.469.566-.929.822-1.362v-.009c.142-.221.265-.442.38-.646.124-.221.239-.424.354-.628.133-.248.265-.539.416-.884.071-.168.15-.354.23-.548s.159-.4.248-.61c.053-.124.1-.248.15-.371.106-.256.221-.522.336-.8.08-.2.168-.407.274-.619.062-.133.124-.265.186-.407a4.148,4.148,0,0,1,.186-.407c.133-.283.274-.566.416-.858s.309-.592.469-.9c.08-.15.168-.31.256-.46q.265-.478.557-.955c.1-.159.195-.327.31-.5.1-.159.2-.327.318-.5s.221-.336.336-.5c.23-.336.478-.681.734-1.026s.531-.69.814-1.043c.239-.3.486-.584.734-.884.009-.018.027-.027.035-.035.044-.053.088-.1.133-.15l.478-.531c.221-.239.442-.478.681-.716.115-.115.239-.239.354-.363.186-.186.371-.363.557-.539.38-.354.769-.716,1.185-1.079a38.586,38.586,0,0,1,3.8-2.936c.274-.195.557-.38.849-.566.23-.15.469-.31.716-.46.354-.221.707-.442,1.079-.654.3-.177.6-.354.92-.539.336-.186.672-.371,1.026-.557.018-.009.026-.018.044-.027a77.166,77.166,0,0,1,20.392-7.048A73.14,73.14,0,0,1,393.75,160.5c.354.009.716.027,1.061.044l.663.027c.5.027.982.053,1.468.1.416.027.831.062,1.247.1,1.3.115,2.582.274,3.829.469.345.053.681.106,1.017.168s.681.115,1.017.177c.672.133,1.335.265,1.99.407.407.088.814.186,1.211.283s.8.195,1.194.3.787.212,1.167.318.769.221,1.15.336c.256.071.5.15.752.23.345.106.69.221,1.026.336h.009c.442.15.867.3,1.291.46s.849.31,1.265.469c.548.212,1.088.433,1.618.654s1.052.451,1.565.681c.38.177.761.345,1.123.522s.734.363,1.1.539c.248.124.486.248.716.363.46.239.92.486,1.362.734l.663.371c.433.248.849.5,1.265.752.212.124.416.248.619.371.4.256.787.5,1.167.752.575.371,1.114.752,1.636,1.114.69.486,1.344.973,1.945,1.45q.676.531,1.273,1.035c.539.451,1.026.884,1.468,1.291.115.1.221.2.318.3s.212.2.31.3c.221.221.424.424.619.628s.371.389.531.566a11.64,11.64,0,0,1,.8.946,19.986,19.986,0,0,0,3.21,3.2c.486.407.982.8,1.477,1.185l.743.584.734,27.317.115,4.4.345,12.867.027.893.009.212.08,3.06.124,4.448.044,1.68v.009l.256,9.444.026,1.052.044,1.7v.009l.088,2.989.177,6.588.159,5.881C442.865,265.748,442.865,265.908,442.865,266.058Z" transform="translate(-332.14 -160.476)" fill="#ffdba0"/>
            </g>
            <g id="Group_4171" data-name="Group 4171" transform="translate(60.971 126.27)" style="mix-blend-mode: multiply;isolation: isolate">
              <path id="Path_4573" data-name="Path 4573" d="M384.8,304.093l20.613-1.114S394.6,309.328,384.8,304.093Z" transform="translate(-384.8 -302.979)" fill="#e1b17f"/>
            </g>
            <g id="Group_4172" data-name="Group 4172" transform="translate(96.003 88.06)">
              <ellipse id="Ellipse_9" data-name="Ellipse 9" cx="9.617" cy="5.815" rx="9.617" ry="5.815" transform="translate(0 1.038) rotate(-3.093)" fill="#ffb67b"/>
            </g>
            <g id="Group_4173" data-name="Group 4173" transform="translate(24.584 91.919)">
              <ellipse id="Ellipse_10" data-name="Ellipse 10" cx="9.617" cy="5.815" rx="9.617" ry="5.815" transform="translate(0 1.038) rotate(-3.093)" fill="#ffb67b"/>
            </g>
            <g id="Group_4174" data-name="Group 4174" transform="translate(24.349 118.99)" style="mix-blend-mode: multiply;isolation: isolate">
              <path id="Path_4574" data-name="Path 4574" d="M440.555,294.747q-.619,1.082-1.343,2.106c-.076.111-.151.221-.239.325a24.908,24.908,0,0,1-7.757,6.71,85.944,85.944,0,0,1-20.7,8.182,90.836,90.836,0,0,1-34.907,1.89,86.264,86.264,0,0,1-21.527-5.931,24.113,24.113,0,0,1-5.606-3.314,23.842,23.842,0,0,1-5.087-5.484C350.929,303.7,392.575,325.514,440.555,294.747Z" transform="translate(-343.388 -294.747)" fill="#e1b17f"/>
            </g>
            <g id="Group_4175" data-name="Group 4175" transform="translate(16.061 36.549)" style="mix-blend-mode: multiply;isolation: isolate">
              <path id="Path_4575" data-name="Path 4575" d="M336.8,256.4s-1.372-41.563,11.766-43.583,60.379,1.978,69.567-.411,9.471-7.937,9.471-7.937l-80.23-2.943-8.729,8.188-4.63,16.7,2.251,30.887.534-.9Z" transform="translate(-334.015 -201.521)" fill="#e1b17f"/>
            </g>
            <g id="Group_4176" data-name="Group 4176" transform="translate(115.068 45.459)" style="mix-blend-mode: multiply;isolation: isolate">
              <path id="Path_4576" data-name="Path 4576" d="M445.975,211.6l6.7,25.261,2.732,17.323.62.694,1.805-25.866-3.158-12.641Z" transform="translate(-445.975 -211.597)" fill="#e1b17f"/>
            </g>
            <g id="Group_4177" data-name="Group 4177" transform="translate(40.143 103.251)">
              <path id="Path_4577" data-name="Path 4577" d="M363.408,279.79c10.6,1.167,35.985,3,58.549-2.772a1.832,1.832,0,0,1,1.985,2.912c-8.977,10.192-33.654,31.876-62.174,2.924A1.834,1.834,0,0,1,363.408,279.79Z" transform="translate(-361.248 -276.949)" fill="#e65942"/>
            </g>
            <g id="Group_4181" data-name="Group 4181" transform="translate(40.143 103.251)">
              <g id="Group_4180" data-name="Group 4180" clip-path="url(#clip-path-5)">
                <g id="Group_4178" data-name="Group 4178" transform="translate(4.451 -15.024)">
                  <path id="Path_4578" data-name="Path 4578" d="M413.832,285.238l-10.622,2.988a42.49,42.49,0,0,1-18.643,1.007l-10.882-1.826c-3.537-.593-6.318-4.516-6.575-9.275l-.829-15.349,52.258-2.825.829,15.349C419.626,280.067,417.284,284.266,413.832,285.238Z" transform="translate(-366.281 -259.959)" fill="#fff"/>
                </g>
                <g id="Group_4179" data-name="Group 4179" transform="translate(8.148 9.625)">
                  <path id="Rectangle_2013" data-name="Rectangle 2013" d="M5,0H42.779a5,5,0,0,1,5,5V17.3a0,0,0,0,1,0,0H0a0,0,0,0,1,0,0V5A5,5,0,0,1,5,0Z" transform="translate(0 2.578) rotate(-3.093)" fill="#fff"/>
                </g>
              </g>
            </g>
            <g id="Group_4182" data-name="Group 4182" transform="translate(54.379 113.185)">
              <path id="Path_4580" data-name="Path 4580" d="M377.364,290.095l.4.091,1.124.233c.483.106,1.076.2,1.752.328.683.095,1.443.237,2.282.348l1.3.183,1.4.148c.96.12,1.981.147,3.028.257,1.051.055,2.137.119,3.242.132,1.1-.015,2.227.027,3.345-.06l1.678-.059c.557-.026,1.109-.1,1.659-.142l1.632-.156,1.579-.251,1.53-.24,1.449-.308,1.376-.291c.446-.093.859-.243,1.265-.355.8-.247,1.556-.441,2.215-.634l1.67-.615c.928-.339,1.468-.522,1.468-.522l.026.053-1.432.612-1.644.7-2.2.732c-.4.125-.818.29-1.264.4l-1.378.338-1.455.357c-.5.1-1.018.177-1.54.269l-1.594.273-1.648.177c-.554.052-1.112.13-1.676.163l-1.7.08c-1.131.077-2.265.02-3.38.023-1.114-.026-2.21-.1-3.269-.172-1.056-.114-2.081-.18-3.043-.332l-1.405-.194-1.305-.226c-.839-.133-1.6-.315-2.274-.447-.671-.16-1.259-.286-1.738-.417-.96-.244-1.5-.421-1.5-.421Z" transform="translate(-377.346 -288.182)" fill="#c7c9cb"/>
            </g>
            <g id="Group_4183" data-name="Group 4183" transform="translate(75.58 69.754)" style="mix-blend-mode: multiply;isolation: isolate">
              <ellipse id="Ellipse_11" data-name="Ellipse 11" cx="10.225" cy="11.123" rx="10.225" ry="11.123" transform="translate(0 1.103) rotate(-3.093)" fill="#e1b17f"/>
            </g>
            <g id="Group_4184" data-name="Group 4184" transform="translate(76.161 71.131)">
              <ellipse id="Ellipse_12" data-name="Ellipse 12" cx="9.643" cy="10.491" rx="9.643" ry="10.491" transform="translate(0 1.041) rotate(-3.093)" fill="#fffdfb"/>
            </g>
            <g id="Group_4185" data-name="Group 4185" transform="translate(80.003 75.275)">
              <ellipse id="Ellipse_13" data-name="Ellipse 13" cx="6.009" cy="6.537" rx="6.009" ry="6.537" transform="translate(0 0.648) rotate(-3.093)" fill="#101010"/>
            </g>
            <g id="Group_4186" data-name="Group 4186" transform="translate(86.034 76.459)">
              <ellipse id="Ellipse_14" data-name="Ellipse 14" cx="1.563" cy="1.7" rx="1.563" ry="1.7" transform="translate(0 0.169) rotate(-3.093)" fill="#fff"/>
            </g>
            <g id="Group_4187" data-name="Group 4187" transform="translate(43.742 71.474)" style="mix-blend-mode: multiply;isolation: isolate">
              <ellipse id="Ellipse_15" data-name="Ellipse 15" cx="10.225" cy="11.123" rx="10.225" ry="11.123" transform="translate(0 1.103) rotate(-3.093)" fill="#e1b17f"/>
            </g>
            <g id="Group_4188" data-name="Group 4188" transform="translate(44.322 72.852)">
              <ellipse id="Ellipse_16" data-name="Ellipse 16" cx="9.643" cy="10.491" rx="9.643" ry="10.491" transform="translate(0 1.041) rotate(-3.093)" fill="#fffdfb"/>
            </g>
            <g id="Group_4189" data-name="Group 4189" transform="translate(48.165 76.996)">
              <ellipse id="Ellipse_17" data-name="Ellipse 17" cx="6.009" cy="6.537" rx="6.009" ry="6.537" transform="translate(0 0.648) rotate(-3.093)" fill="#101010"/>
            </g>
            <g id="Group_4190" data-name="Group 4190" transform="translate(54.196 78.179)">
              <ellipse id="Ellipse_18" data-name="Ellipse 18" cx="1.563" cy="1.7" rx="1.563" ry="1.7" transform="translate(0 0.169) rotate(-3.093)" fill="#fff"/>
            </g>
            <g id="Group_4191" data-name="Group 4191" transform="translate(50.766 80.046)" opacity="0.1">
              <ellipse id="Ellipse_19" data-name="Ellipse 19" cx="3.598" cy="3.914" rx="3.598" ry="3.914" transform="translate(0 0.388) rotate(-3.093)" fill="#fff"/>
            </g>
            <g id="Group_4192" data-name="Group 4192" transform="translate(82.314 78.341)" opacity="0.1">
              <ellipse id="Ellipse_20" data-name="Ellipse 20" cx="3.598" cy="3.914" rx="3.598" ry="3.914" transform="translate(0 0.388) rotate(-3.093)" fill="#fff"/>
            </g>
            <g id="Group_4193" data-name="Group 4193" transform="translate(77.166 52.687)">
              <path id="Path_4581" data-name="Path 4581" d="M403.116,230.145a2.761,2.761,0,0,1,.006-.317,7.267,7.267,0,0,1,.093-.872,9.41,9.41,0,0,1,.294-1.312A11.628,11.628,0,0,1,404.1,226a12.232,12.232,0,0,1,1.021-1.833,11.63,11.63,0,0,1,1.571-1.862,9.431,9.431,0,0,1,1.048-.86,8.566,8.566,0,0,1,1.232-.761,9.066,9.066,0,0,1,3.016-.892,8.444,8.444,0,0,1,3.2.37,8.6,8.6,0,0,1,2.573,1.369,10.392,10.392,0,0,1,1.784,1.758c.225.312.447.606.643.9s.348.6.5.882a10.021,10.021,0,0,1,.687,1.607,7.5,7.5,0,0,1,.371,1.286c.09.357.121.66.157.853s.039.309.039.309l0,.066a.138.138,0,0,1-.128.148.14.14,0,0,1-.122-.057l-.613-.861c-.191-.277-.429-.608-.73-.966s-.616-.779-1.009-1.2c-.2-.209-.384-.442-.606-.655l-.692-.654a11.892,11.892,0,0,0-1.638-1.216,8.729,8.729,0,0,0-.945-.5,9.382,9.382,0,0,0-1.024-.364,6.57,6.57,0,0,0-2.184-.186,7.49,7.49,0,0,0-2.13.564,10.513,10.513,0,0,0-1.861,1.112,14.532,14.532,0,0,0-1.532,1.362,17.382,17.382,0,0,0-1.219,1.387,24.667,24.667,0,0,0-1.61,2.259c-.357.57-.533.906-.533.906a.136.136,0,0,1-.256-.055Z" transform="translate(-403.114 -219.771)" fill="#101010"/>
            </g>
            <g id="Group_4194" data-name="Group 4194" transform="translate(43.198 54.523)">
              <path id="Path_4582" data-name="Path 4582" d="M364.7,232.22a2.857,2.857,0,0,1,.005-.317,7.513,7.513,0,0,1,.094-.871,9.45,9.45,0,0,1,.294-1.313,11.717,11.717,0,0,1,.592-1.644,12.271,12.271,0,0,1,1.021-1.832,11.674,11.674,0,0,1,1.571-1.862,9.55,9.55,0,0,1,1.049-.86,8.642,8.642,0,0,1,1.232-.76,9.059,9.059,0,0,1,3.016-.892,8.446,8.446,0,0,1,3.2.37,8.627,8.627,0,0,1,2.573,1.369,10.422,10.422,0,0,1,1.784,1.758c.225.312.447.606.643.9s.348.6.5.882a10.034,10.034,0,0,1,.687,1.608,7.482,7.482,0,0,1,.371,1.286c.09.357.121.66.157.853s.039.309.039.309l0,.066a.138.138,0,0,1-.25.089l-.613-.861c-.191-.276-.43-.608-.73-.965s-.616-.779-1.009-1.2c-.2-.209-.384-.442-.606-.655l-.692-.655A12.037,12.037,0,0,0,378,225.81a8.886,8.886,0,0,0-.945-.5,9.32,9.32,0,0,0-1.025-.363,6.54,6.54,0,0,0-2.183-.186,7.489,7.489,0,0,0-2.13.564,10.562,10.562,0,0,0-1.861,1.112,14.636,14.636,0,0,0-1.532,1.362,17.548,17.548,0,0,0-1.219,1.387,24.982,24.982,0,0,0-1.611,2.259c-.356.57-.532.906-.532.906a.136.136,0,0,1-.256-.054Z" transform="translate(-364.703 -221.847)" fill="#101010"/>
            </g>
            <g id="Group_4196" data-name="Group 4196" transform="translate(77.68 62.327)" style="mix-blend-mode: multiply;isolation: isolate">
              <g id="Group_4195" data-name="Group 4195">
                <path id="Path_4583" data-name="Path 4583" d="M403.7,239.007a10.5,10.5,0,0,1,.435-.979,18.017,18.017,0,0,1,1.447-2.435,14.9,14.9,0,0,1,2.735-2.986,11.227,11.227,0,0,1,1.981-1.242,8.189,8.189,0,0,1,2.368-.679,7.338,7.338,0,0,1,2.463.262,10.04,10.04,0,0,1,1.125.426,9.553,9.553,0,0,1,1.014.564,10.275,10.275,0,0,1,1.685,1.357l.684.718c.219.233.4.482.591.707a11.4,11.4,0,0,1,.938,1.3c.271.391.48.748.647,1.045.338.592.517.935.517.935l-.049.032-.6-.877c-.187-.282-.419-.62-.715-.986a15.666,15.666,0,0,0-1-1.22c-.2-.212-.385-.448-.608-.665l-.7-.668A12.13,12.13,0,0,0,417,232.368a8.9,8.9,0,0,0-.966-.517,9.387,9.387,0,0,0-1.054-.381,6.759,6.759,0,0,0-2.264-.206,7.7,7.7,0,0,0-2.2.6,10.757,10.757,0,0,0-1.9,1.148,14.681,14.681,0,0,0-1.547,1.391,17.746,17.746,0,0,0-1.225,1.408,22.014,22.014,0,0,0-1.584,2.3c-.346.58-.517.925-.517.925Z" transform="translate(-403.695 -230.671)" fill="#e1b17f"/>
              </g>
            </g>
            <g id="Group_4198" data-name="Group 4198" transform="translate(43.712 64.163)" style="mix-blend-mode: multiply;isolation: isolate">
              <g id="Group_4197" data-name="Group 4197">
                <path id="Path_4584" data-name="Path 4584" d="M365.284,241.082a10.533,10.533,0,0,1,.435-.978,17.873,17.873,0,0,1,1.447-2.435,14.926,14.926,0,0,1,2.735-2.987,11.3,11.3,0,0,1,1.981-1.242,8.217,8.217,0,0,1,2.368-.678,7.338,7.338,0,0,1,2.463.262,10.1,10.1,0,0,1,1.125.426,9.633,9.633,0,0,1,1.014.564,10.278,10.278,0,0,1,1.685,1.357l.684.718c.219.232.4.481.591.707a11.569,11.569,0,0,1,.938,1.3c.271.392.48.749.647,1.046.337.592.517.935.517.935l-.049.031-.6-.876c-.187-.282-.419-.62-.715-.986a15.668,15.668,0,0,0-1-1.22c-.2-.212-.385-.448-.608-.665l-.7-.668a12.264,12.264,0,0,0-1.661-1.248,9.135,9.135,0,0,0-.966-.517,9.829,9.829,0,0,0-1.054-.381,6.785,6.785,0,0,0-2.265-.205,7.69,7.69,0,0,0-2.2.6,10.758,10.758,0,0,0-1.9,1.148,14.6,14.6,0,0,0-1.547,1.391,17.585,17.585,0,0,0-1.225,1.408,21.863,21.863,0,0,0-1.584,2.3c-.346.58-.518.925-.518.925Z" transform="translate(-365.284 -232.747)" fill="#e1b17f"/>
              </g>
            </g>
            <g id="Group_4200" data-name="Group 4200" transform="translate(103.201 66.747)">
              <g id="Group_4199" data-name="Group 4199" transform="translate(0 0)">
                <rect id="Rectangle_2014" data-name="Rectangle 2014" width="27.458" height="2.907" transform="translate(0 9.26) rotate(-19.709)" fill="#101010"/>
              </g>
            </g>
            <g id="Group_4202" data-name="Group 4202" transform="translate(17.511 72.162)">
              <g id="Group_4201" data-name="Group 4201" transform="translate(0 0)">
                <rect id="Rectangle_2015" data-name="Rectangle 2015" width="2.908" height="20.198" transform="matrix(0.255, -0.967, 0.967, 0.255, 0, 2.812)" fill="#101010"/>
              </g>
            </g>
            <g id="Group_4211" data-name="Group 4211" transform="translate(36.831 67.684)">
              <g id="Group_4207" data-name="Group 4207">
                <g id="Group_4204" data-name="Group 4204" transform="translate(34.185)">
                  <g id="Group_4203" data-name="Group 4203">
                    <path id="Path_4585" data-name="Path 4585" d="M428.995,247.395c-.327-.221-.646-.442-.982-.663l.5,9.347a4.605,4.605,0,0,1-.283,1.884c.345-.08.7-.141,1.061-.195.026-.106.053-.221.08-.327a2.388,2.388,0,0,0,.053-.363,1.194,1.194,0,0,0,.018-.177,4.876,4.876,0,0,0,.018-.8Zm-8.189-9.542c-.018-.027-.027-.044-.044-.071l-12.752.7h-.027l-2.618.141-1.919.106a.413.413,0,0,0-.053.08,2.159,2.159,0,0,0-.133.23c-.044.071-.08.142-.115.2-.071.124-.133.23-.177.309l7.87-.424,10.453-.566C421.186,238.41,421.027,238.171,420.806,237.853Zm8.189,9.542c-.327-.221-.646-.442-.982-.663l.5,9.347a4.605,4.605,0,0,1-.283,1.884c.345-.08.7-.141,1.061-.195.026-.106.053-.221.08-.327a2.388,2.388,0,0,0,.053-.363,1.194,1.194,0,0,0,.018-.177,4.876,4.876,0,0,0,.018-.8Zm-8.189-9.542c-.018-.027-.027-.044-.044-.071l-12.752.7h-.027l-2.618.141-1.919.106a.413.413,0,0,0-.053.08,2.159,2.159,0,0,0-.133.23c-.044.071-.08.142-.115.2-.071.124-.133.23-.177.309l7.87-.424,10.453-.566C421.186,238.41,421.027,238.171,420.806,237.853Zm8.189,9.542c-.327-.221-.646-.442-.982-.663l.5,9.347a4.605,4.605,0,0,1-.283,1.884c.345-.08.7-.141,1.061-.195.026-.106.053-.221.08-.327a2.388,2.388,0,0,0,.053-.363,1.194,1.194,0,0,0,.018-.177,4.876,4.876,0,0,0,.018-.8Zm-8.189-9.542c-.018-.027-.027-.044-.044-.071l-12.752.7h-.027l-2.618.141-1.919.106a.413.413,0,0,0-.053.08,2.159,2.159,0,0,0-.133.23c-.044.071-.08.142-.115.2-.071.124-.133.23-.177.309l7.87-.424,10.453-.566C421.186,238.41,421.027,238.171,420.806,237.853Zm8.189,9.542c-.327-.221-.646-.442-.982-.663l.5,9.347a4.605,4.605,0,0,1-.283,1.884c.345-.08.7-.141,1.061-.195.026-.106.053-.221.08-.327a2.388,2.388,0,0,0,.053-.363,1.194,1.194,0,0,0,.018-.177,4.876,4.876,0,0,0,.018-.8Zm-8.233-9.613-12.752.7h-.027l-2.618.141-1.919.106a.413.413,0,0,0-.053.08,2.159,2.159,0,0,0-.133.23c-.044.071-.08.142-.115.2-.071.124-.133.23-.177.309l7.87-.424,10.453-.566c-.106-.15-.265-.389-.486-.707C420.788,237.826,420.779,237.809,420.762,237.782Zm9.064,10.2-.018-.363-.168-3.033-.088-1.663a6.55,6.55,0,0,0-6.88-6.181l-2.29.124-.283.018-16.024.858-.3.018-.195.018-1.229.062a6.552,6.552,0,0,0-6.181,6.889l.707,13.061a6.468,6.468,0,0,0,1.07,3.237,5.019,5.019,0,0,0,.716.9,6.484,6.484,0,0,0,5.094,2.043l17.775-.955,2.556-.141a6.531,6.531,0,0,0,6.04-5.2,6.267,6.267,0,0,0,.133-1.689Zm-7.437,13.238-18.721,1.008a4.8,4.8,0,0,1-5.049-4.528l-.707-13.07a4.808,4.808,0,0,1,4.528-5.049l.442-.027h.088l7.87-.424,10.453-.566.08-.009h.009l1.388-.071a4.8,4.8,0,0,1,5.041,4.537l.2,3.714.5,9.347a4.605,4.605,0,0,1-.283,1.884,4.778,4.778,0,0,1-4.245,3.166Zm-1.583-23.364c-.018-.027-.027-.044-.044-.071l-12.752.7h-.027l-2.618.141-1.919.106a.413.413,0,0,0-.053.08,2.159,2.159,0,0,0-.133.23c-.044.071-.08.142-.115.2-.071.124-.133.23-.177.309l7.87-.424,10.453-.566C421.186,238.41,421.027,238.171,420.806,237.853Zm8.189,9.542c-.327-.221-.646-.442-.982-.663l.5,9.347a4.605,4.605,0,0,1-.283,1.884c.345-.08.7-.141,1.061-.195.026-.106.053-.221.08-.327a2.388,2.388,0,0,0,.053-.363,1.194,1.194,0,0,0,.018-.177,4.876,4.876,0,0,0,.018-.8Zm-8.189-9.542c-.018-.027-.027-.044-.044-.071l-12.752.7h-.027l-2.618.141-1.919.106a.413.413,0,0,0-.053.08,2.159,2.159,0,0,0-.133.23c-.044.071-.08.142-.115.2-.071.124-.133.23-.177.309l7.87-.424,10.453-.566C421.186,238.41,421.027,238.171,420.806,237.853Zm8.189,9.542c-.327-.221-.646-.442-.982-.663l.5,9.347a4.605,4.605,0,0,1-.283,1.884c.345-.08.7-.141,1.061-.195.026-.106.053-.221.08-.327a2.388,2.388,0,0,0,.053-.363,1.194,1.194,0,0,0,.018-.177,4.876,4.876,0,0,0,.018-.8Zm-8.189-9.542c-.018-.027-.027-.044-.044-.071l-12.752.7h-.027l-2.618.141-1.919.106a.413.413,0,0,0-.053.08,2.159,2.159,0,0,0-.133.23c-.044.071-.08.142-.115.2-.071.124-.133.23-.177.309l7.87-.424,10.453-.566C421.186,238.41,421.027,238.171,420.806,237.853Zm8.189,9.542c-.327-.221-.646-.442-.982-.663l.5,9.347a4.605,4.605,0,0,1-.283,1.884c.345-.08.7-.141,1.061-.195.026-.106.053-.221.08-.327a2.388,2.388,0,0,0,.053-.363,1.194,1.194,0,0,0,.018-.177,4.876,4.876,0,0,0,.018-.8Zm-8.189-9.542c-.018-.027-.027-.044-.044-.071l-12.752.7h-.027l-2.618.141-1.919.106a.413.413,0,0,0-.053.08,2.159,2.159,0,0,0-.133.23c-.044.071-.08.142-.115.2-.071.124-.133.23-.177.309l7.87-.424,10.453-.566C421.186,238.41,421.027,238.171,420.806,237.853Zm8.189,9.542c-.327-.221-.646-.442-.982-.663l.5,9.347a4.605,4.605,0,0,1-.283,1.884c.345-.08.7-.141,1.061-.195.026-.106.053-.221.08-.327a2.388,2.388,0,0,0,.053-.363,1.194,1.194,0,0,0,.018-.177,4.876,4.876,0,0,0,.018-.8Z" transform="translate(-396.159 -236.729)" fill="#101010"/>
                  </g>
                </g>
                <g id="Group_4206" data-name="Group 4206" transform="translate(0 1.848)">
                  <g id="Group_4205" data-name="Group 4205">
                    <path id="Path_4586" data-name="Path 4586" d="M390.255,248.07A8.668,8.668,0,0,0,390,246.4c-.044-.168-.1-.345-.15-.513a2.761,2.761,0,0,0-.133-.38c-.027-.088-.071-.186-.106-.274s-.062-.15-.1-.23-.071-.15-.106-.221c-.062-.124-.124-.239-.186-.354-.08-.15-.168-.3-.257-.442a4.667,4.667,0,0,1,.195,1.114l.707,13.07a4.754,4.754,0,0,1-.141,1.424,7.272,7.272,0,0,0,.566-1.415,5.121,5.121,0,0,0,.133-.5,4.95,4.95,0,0,0,.106-.522c.027-.124.035-.248.053-.371.009-.009.009-.018.009-.035.027-.2.044-.407.053-.619a7.517,7.517,0,0,0,0-.893Zm-5.7-7.641a4.942,4.942,0,0,0-.725-.23c-.2-.053-.407-.1-.619-.141a5.149,5.149,0,0,0-.646-.088.694.694,0,0,0-.195-.018c0-.009-.009-.009-.009-.018-.186-.283-.416-.61-.707-.982l-2.308.124c-1.424.345-2.848.734-4.227,1.176l-.044.009-8.321.451c-.292.018-.575.044-.849.088-.168.027-.345.062-.513.1s-.345.08-.522.133c-.159.256-.274.46-.345.592l7.809-.416,10.515-.566.088-.009,1.167-.062a5.067,5.067,0,0,1,.9.035C384.87,240.544,384.72,240.482,384.56,240.429Zm5.7,7.641A8.668,8.668,0,0,0,390,246.4c-.044-.168-.1-.345-.15-.513a2.761,2.761,0,0,0-.133-.38c-.027-.088-.071-.186-.106-.274s-.062-.15-.1-.23-.071-.15-.106-.221c-.062-.124-.124-.239-.186-.354-.08-.15-.168-.3-.257-.442a4.667,4.667,0,0,1,.195,1.114l.707,13.07a4.754,4.754,0,0,1-.141,1.424,7.272,7.272,0,0,0,.566-1.415,5.121,5.121,0,0,0,.133-.5,4.95,4.95,0,0,0,.106-.522c.027-.124.035-.248.053-.371.009-.009.009-.018.009-.035.027-.2.044-.407.053-.619a7.517,7.517,0,0,0,0-.893Zm-5.7-7.641a4.942,4.942,0,0,0-.725-.23c-.2-.053-.407-.1-.619-.141a5.149,5.149,0,0,0-.646-.088.694.694,0,0,0-.195-.018c0-.009-.009-.009-.009-.018-.186-.283-.416-.61-.707-.982l-2.308.124c-1.424.345-2.848.734-4.227,1.176l-.044.009-8.321.451c-.292.018-.575.044-.849.088-.168.027-.345.062-.513.1s-.345.08-.522.133c-.159.256-.274.46-.345.592l7.809-.416,10.515-.566.088-.009,1.167-.062a5.067,5.067,0,0,1,.9.035C384.87,240.544,384.72,240.482,384.56,240.429Zm5.7,7.641A8.668,8.668,0,0,0,390,246.4c-.044-.168-.1-.345-.15-.513a2.761,2.761,0,0,0-.133-.38c-.027-.088-.071-.186-.106-.274s-.062-.15-.1-.23-.071-.15-.106-.221c-.062-.124-.124-.239-.186-.354-.08-.15-.168-.3-.257-.442a4.667,4.667,0,0,1,.195,1.114l.707,13.07a4.754,4.754,0,0,1-.141,1.424,7.272,7.272,0,0,0,.566-1.415,5.121,5.121,0,0,0,.133-.5,4.95,4.95,0,0,0,.106-.522c.027-.124.035-.248.053-.371.009-.009.009-.018.009-.035.027-.2.044-.407.053-.619a7.517,7.517,0,0,0,0-.893Zm-5.7-7.641a4.942,4.942,0,0,0-.725-.23c-.2-.053-.407-.1-.619-.141a5.149,5.149,0,0,0-.646-.088.694.694,0,0,0-.195-.018c0-.009-.009-.009-.009-.018-.186-.283-.416-.61-.707-.982l-2.308.124c-1.424.345-2.848.734-4.227,1.176l-.044.009-8.321.451c-.292.018-.575.044-.849.088-.168.027-.345.062-.513.1s-.345.08-.522.133c-.159.256-.274.46-.345.592l7.809-.416,10.515-.566.088-.009,1.167-.062a5.067,5.067,0,0,1,.9.035C384.87,240.544,384.72,240.482,384.56,240.429Zm5.7,7.641A8.668,8.668,0,0,0,390,246.4c-.044-.168-.1-.345-.15-.513a2.761,2.761,0,0,0-.133-.38c-.027-.088-.071-.186-.106-.274s-.062-.15-.1-.23-.071-.15-.106-.221c-.062-.124-.124-.239-.186-.354-.08-.15-.168-.3-.257-.442a4.667,4.667,0,0,1,.195,1.114l.707,13.07a4.754,4.754,0,0,1-.141,1.424,7.272,7.272,0,0,0,.566-1.415,5.121,5.121,0,0,0,.133-.5,4.95,4.95,0,0,0,.106-.522c.027-.124.035-.248.053-.371.009-.009.009-.018.009-.035.027-.2.044-.407.053-.619a7.517,7.517,0,0,0,0-.893Zm-6.42-7.87c-.2-.053-.407-.1-.619-.141a5.149,5.149,0,0,0-.646-.088.694.694,0,0,0-.195-.018c0-.009-.009-.009-.009-.018-.186-.283-.416-.61-.707-.982l-2.308.124c-1.424.345-2.848.734-4.227,1.176l-.044.009-8.321.451c-.292.018-.575.044-.849.088-.168.027-.345.062-.513.1s-.345.08-.522.133c-.159.256-.274.46-.345.592l7.809-.416,10.515-.566.088-.009,1.167-.062a5.067,5.067,0,0,1,.9.035c-.141-.062-.292-.124-.451-.177A4.942,4.942,0,0,0,383.835,240.2Zm7.773,17.872L390.9,245.01a6.558,6.558,0,0,0-6.889-6.181l-2.069.115-.283.009-2.308.124-13.716.743-.3.018-1.645.088a6.542,6.542,0,0,0-6.181,6.42,4.139,4.139,0,0,0,0,.469l.141,2.564v.009l.566,10.488a6.55,6.55,0,0,0,6.376,6.181,4.957,4.957,0,0,0,.513,0l20.322-1.1a5.92,5.92,0,0,0,1.132-.168,6.527,6.527,0,0,0,4.758-4.422A6.4,6.4,0,0,0,391.608,258.071Zm-4.466,4.678a1.953,1.953,0,0,1-.371.159c-.009.009-.018.018-.027.018a4.688,4.688,0,0,1-1.415.292l-20.322,1.1a4.931,4.931,0,0,1-1.15-.08c-.018.009-.027,0-.035-.009a3.052,3.052,0,0,1-.619-.168,4.8,4.8,0,0,1-3.1-3.343,4.617,4.617,0,0,1-.141-.928l-.628-11.655-.08-1.415a4.69,4.69,0,0,1,.018-.707,4.791,4.791,0,0,1,3.8-4.245h.009a3.786,3.786,0,0,1,.707-.1l.654-.035.088-.009,7.809-.416,10.515-.566.088-.009,1.167-.062a5.067,5.067,0,0,1,.9.035c.018,0,.027,0,.035.009a4.782,4.782,0,0,1,3.909,3.352c.009,0,.009.009.009.018a4.667,4.667,0,0,1,.195,1.114l.707,13.07a4.754,4.754,0,0,1-.141,1.424v.018a4.5,4.5,0,0,1-.478,1.185A4.693,4.693,0,0,1,387.143,262.75Zm-2.582-22.32a4.942,4.942,0,0,0-.725-.23c-.2-.053-.407-.1-.619-.141a5.149,5.149,0,0,0-.646-.088.694.694,0,0,0-.195-.018c0-.009-.009-.009-.009-.018-.186-.283-.416-.61-.707-.982l-2.308.124c-1.424.345-2.848.734-4.227,1.176l-.044.009-8.321.451c-.292.018-.575.044-.849.088-.168.027-.345.062-.513.1s-.345.08-.522.133c-.159.256-.274.46-.345.592l7.809-.416,10.515-.566.088-.009,1.167-.062a5.067,5.067,0,0,1,.9.035C384.87,240.544,384.72,240.482,384.56,240.429Zm5.7,7.641A8.668,8.668,0,0,0,390,246.4c-.044-.168-.1-.345-.15-.513a2.761,2.761,0,0,0-.133-.38c-.027-.088-.071-.186-.106-.274s-.062-.15-.1-.23-.071-.15-.106-.221c-.062-.124-.124-.239-.186-.354-.08-.15-.168-.3-.257-.442a4.667,4.667,0,0,1,.195,1.114l.707,13.07a4.754,4.754,0,0,1-.141,1.424,7.272,7.272,0,0,0,.566-1.415,5.121,5.121,0,0,0,.133-.5,4.95,4.95,0,0,0,.106-.522c.027-.124.035-.248.053-.371.009-.009.009-.018.009-.035.027-.2.044-.407.053-.619a7.517,7.517,0,0,0,0-.893Zm-5.7-7.641a4.942,4.942,0,0,0-.725-.23c-.2-.053-.407-.1-.619-.141a5.149,5.149,0,0,0-.646-.088.694.694,0,0,0-.195-.018c0-.009-.009-.009-.009-.018-.186-.283-.416-.61-.707-.982l-2.308.124c-1.424.345-2.848.734-4.227,1.176l-.044.009-8.321.451c-.292.018-.575.044-.849.088-.168.027-.345.062-.513.1s-.345.08-.522.133c-.159.256-.274.46-.345.592l7.809-.416,10.515-.566.088-.009,1.167-.062a5.067,5.067,0,0,1,.9.035C384.87,240.544,384.72,240.482,384.56,240.429Zm5.7,7.641A8.668,8.668,0,0,0,390,246.4c-.044-.168-.1-.345-.15-.513a2.761,2.761,0,0,0-.133-.38c-.027-.088-.071-.186-.106-.274s-.062-.15-.1-.23-.071-.15-.106-.221c-.062-.124-.124-.239-.186-.354-.08-.15-.168-.3-.257-.442a4.667,4.667,0,0,1,.195,1.114l.707,13.07a4.754,4.754,0,0,1-.141,1.424,7.272,7.272,0,0,0,.566-1.415,5.121,5.121,0,0,0,.133-.5,4.95,4.95,0,0,0,.106-.522c.027-.124.035-.248.053-.371.009-.009.009-.018.009-.035.027-.2.044-.407.053-.619a7.517,7.517,0,0,0,0-.893Zm-5.7-7.641a4.942,4.942,0,0,0-.725-.23c-.2-.053-.407-.1-.619-.141a5.149,5.149,0,0,0-.646-.088.694.694,0,0,0-.195-.018c0-.009-.009-.009-.009-.018-.186-.283-.416-.61-.707-.982l-2.308.124c-1.424.345-2.848.734-4.227,1.176l-.044.009-8.321.451c-.292.018-.575.044-.849.088-.168.027-.345.062-.513.1s-.345.08-.522.133c-.159.256-.274.46-.345.592l7.809-.416,10.515-.566.088-.009,1.167-.062a5.067,5.067,0,0,1,.9.035C384.87,240.544,384.72,240.482,384.56,240.429Zm5.7,7.641A8.668,8.668,0,0,0,390,246.4c-.044-.168-.1-.345-.15-.513a2.761,2.761,0,0,0-.133-.38c-.027-.088-.071-.186-.106-.274s-.062-.15-.1-.23-.071-.15-.106-.221c-.062-.124-.124-.239-.186-.354-.08-.15-.168-.3-.257-.442a4.667,4.667,0,0,1,.195,1.114l.707,13.07a4.754,4.754,0,0,1-.141,1.424,7.272,7.272,0,0,0,.566-1.415,5.121,5.121,0,0,0,.133-.5,4.95,4.95,0,0,0,.106-.522c.027-.124.035-.248.053-.371.009-.009.009-.018.009-.035.027-.2.044-.407.053-.619a7.517,7.517,0,0,0,0-.893Zm-5.7-7.641a4.942,4.942,0,0,0-.725-.23c-.2-.053-.407-.1-.619-.141a5.149,5.149,0,0,0-.646-.088.694.694,0,0,0-.195-.018c0-.009-.009-.009-.009-.018-.186-.283-.416-.61-.707-.982l-2.308.124c-1.424.345-2.848.734-4.227,1.176l-.044.009-8.321.451c-.292.018-.575.044-.849.088-.168.027-.345.062-.513.1s-.345.08-.522.133c-.159.256-.274.46-.345.592l7.809-.416,10.515-.566.088-.009,1.167-.062a5.067,5.067,0,0,1,.9.035C384.87,240.544,384.72,240.482,384.56,240.429Zm5.7,7.641A8.668,8.668,0,0,0,390,246.4c-.044-.168-.1-.345-.15-.513a2.761,2.761,0,0,0-.133-.38c-.027-.088-.071-.186-.106-.274s-.062-.15-.1-.23-.071-.15-.106-.221c-.062-.124-.124-.239-.186-.354-.08-.15-.168-.3-.257-.442a4.667,4.667,0,0,1,.195,1.114l.707,13.07a4.754,4.754,0,0,1-.141,1.424,7.272,7.272,0,0,0,.566-1.415,5.121,5.121,0,0,0,.133-.5,4.95,4.95,0,0,0,.106-.522c.027-.124.035-.248.053-.371.009-.009.009-.018.009-.035.027-.2.044-.407.053-.619a7.517,7.517,0,0,0,0-.893Z" transform="translate(-357.503 -238.819)" fill="#101010"/>
                  </g>
                </g>
              </g>
              <g id="Group_4210" data-name="Group 4210" transform="translate(0.645 0.943)">
                <g id="Group_4208" data-name="Group 4208" transform="translate(0 1.55)" opacity="0.5">
                  <rect id="Rectangle_2016" data-name="Rectangle 2016" width="31.691" height="24.423" rx="9.75" transform="translate(0 1.71) rotate(-3.093)" fill="#fff"/>
                </g>
                <g id="Group_4209" data-name="Group 4209" transform="translate(34.483)" opacity="0.5">
                  <path id="Path_4587" data-name="Path 4587" d="M424.229,262.191l-20.322,1.1a5.669,5.669,0,0,1-5.967-5.355l-.706-13.065a5.669,5.669,0,0,1,5.355-5.966l2.9-.157,17.42-.941a5.67,5.67,0,0,1,5.967,5.354l.706,13.065A5.669,5.669,0,0,1,424.229,262.191Z" transform="translate(-397.225 -237.796)" fill="#fff"/>
                </g>
              </g>
            </g>
            <g id="Group_4212" data-name="Group 4212" transform="translate(65.635 90.894)">
              <path id="Rectangle_2017" data-name="Rectangle 2017" d="M4.652,0h0A3.489,3.489,0,0,1,8.141,3.489V6.978a3.489,3.489,0,0,1-3.489,3.489h0A4.652,4.652,0,0,1,0,5.815V4.652A4.652,4.652,0,0,1,4.652,0Z" transform="matrix(0.999, -0.054, 0.054, 0.999, 0, 0.439)" fill="#dfa054"/>
            </g>
            <g id="Group_4213" data-name="Group 4213" transform="translate(13.01 0.252)">
              <path id="Path_4588" data-name="Path 4588" d="M449.191,221.347c-.177,2.458-.46,4.82-.8,7.057-.478,3.06-1.07,5.9-1.707,8.445a83.467,83.467,0,0,1-4.439,13.282v.009c-.15.336-.23.5-.23.5.053-.769.088-1.53.124-2.282.009-.336.027-.654.035-.982a82.158,82.158,0,0,0-.256-9.444v-.009c-.044-.575-.1-1.123-.159-1.663-.168-1.574-.371-3.007-.592-4.254-.186-1.114-.4-2.078-.6-2.874v-.009c-.027-.133-.062-.256-.1-.38-.088-.327-.15-.628-.2-.92-.292-1.716-.071-2.839-.725-3.122a4.318,4.318,0,0,1-2.379-1.91.009.009,0,0,1-.009-.009,18.515,18.515,0,0,1-1.6-6.031v-.018c-.088-.575-.168-1.212-.256-1.884a21.372,21.372,0,0,0-1.061-4.8,9.961,9.961,0,0,0-1-2.043c-1.494-2.308-4-3.749-8.339-4.05a25.3,25.3,0,0,0-2.98-.035,49.927,49.927,0,0,0-6.243.637c-13.84,2.167-44.048,2.476-61.884.469-2.264-.256-4.324-.548-6.128-.875-4.793-.867-7.526,3.29-9.153,9.533-1.388,5.35-1.963,12.23-2.317,18.8-.044.769-.088,1.53-.124,2.29,0,.08-.009.15-.009.23-.009.15-.018.3-.018.442-.124,2.865-.142,5.686-.106,8.26.044,3.272.177,6.146.292,8.215.133,2.14.248,3.431.248,3.431a1.035,1.035,0,0,1-.044-.177c-.009-.009-.009-.009-.009-.018-.168-.725-.354-1.609-.548-2.626a.384.384,0,0,1-.009-.044.031.031,0,0,1-.009-.018c-.442-2.4-.937-5.527-1.424-9.029-.38-2.7-.761-5.615-1.132-8.6-.654-5.332-1.265-10.868-1.742-15.7-.646-6.456-1.043-11.664-.99-13.477a14.976,14.976,0,0,1,1.388-5.527v-.009a1.9,1.9,0,0,1,.088-.195c.133-.31.274-.619.424-.92.354-.725.734-1.441,1.132-2.149.062-.115.115-.221.186-.327.124-.23.256-.46.389-.681q.438-.743.875-1.459c.239-.4.477-.787.716-1.158.283-.469.566-.929.822-1.362v-.009c.133-.221.265-.442.38-.646.124-.221.239-.424.354-.628.133-.248.265-.539.416-.884.071-.168.15-.354.23-.548s.159-.4.248-.61c.053-.124.1-.248.15-.371.106-.256.212-.531.336-.8.08-.2.168-.407.274-.619.062-.133.124-.265.186-.407a4.147,4.147,0,0,1,.186-.407c.133-.283.274-.566.416-.858s.31-.592.469-.9c.08-.15.168-.31.256-.46q.265-.478.557-.955c.1-.159.195-.327.309-.5.1-.159.2-.327.318-.5s.221-.336.336-.5c.23-.336.478-.681.734-1.026s.531-.69.814-1.043c.239-.3.486-.584.734-.884.009-.018.027-.027.035-.035.044-.053.088-.1.133-.15l.478-.531c.221-.239.442-.478.681-.716.115-.115.239-.239.354-.363.186-.186.371-.363.557-.539.38-.363.769-.725,1.185-1.079a38.589,38.589,0,0,1,3.8-2.936c.274-.195.557-.38.849-.566.23-.15.469-.31.716-.46.354-.221.707-.442,1.079-.654.3-.177.6-.354.92-.539.336-.186.672-.371,1.026-.557.018-.009.027-.018.044-.027a77.166,77.166,0,0,1,20.392-7.048,73.139,73.139,0,0,1,17.023-1.627c.354.009.716.027,1.061.044l.663.027c.5.027.982.053,1.468.1.416.027.831.062,1.247.1,1.3.115,2.582.274,3.829.469.345.053.681.106,1.017.168s.681.115,1.017.177c.672.133,1.335.265,1.99.407.407.088.814.186,1.211.283s.8.195,1.194.3.787.212,1.167.318.769.221,1.15.336c.248.071.486.15.734.23h.018c.345.106.69.221,1.026.336h.009c.442.15.867.3,1.291.46s.849.31,1.265.469c.548.212,1.088.433,1.618.654s1.052.451,1.565.681c.38.177.761.345,1.123.522s.734.363,1.1.539c.248.124.486.248.716.363.469.248.92.5,1.362.734l.663.371c.433.256.858.5,1.265.752.212.124.416.248.619.371.4.256.787.5,1.167.752.575.371,1.114.752,1.636,1.114.69.5,1.335.982,1.945,1.45q.677.531,1.273,1.035c.539.451,1.026.884,1.468,1.291.115.1.221.2.318.3s.2.2.31.3c.221.221.424.424.619.628s.371.389.531.566a11.635,11.635,0,0,1,.8.946,19.987,19.987,0,0,0,3.21,3.2c.478.4.973.787,1.477,1.185l.743.584.009.009c2.865,2.255,5.624,4.537,6.173,7.835.928,5.58,1.2,8.817,1.2,8.817A76.624,76.624,0,0,1,449.191,221.347Z" transform="translate(-330.565 -160.476)" fill="#1a1818"/>
            </g>
            <g id="Group_4214" data-name="Group 4214" transform="translate(13.53)">
              <path id="Path_4589" data-name="Path 4589" d="M332.086,220.793s1.9-38.44,27.4-29.919,59.351,6.3,59.351,6.3-34.847-11.753-40.336-16.333c0,0-4.67-4.261,1.982-1.053s41.29,8.4,52.171,3.658-17.729-20.952-28.939-19.619l9.435-.509s-32.353-10.044-56.971,5.844-15.823,22.4-23.05,28.761C333.131,197.928,329.491,206.909,332.086,220.793Z" transform="translate(-331.153 -160.191)" fill="#161516"/>
            </g>
          </g>
        </g>
      </g>
    </g>
  </g>
</svg>
